Mattone-Black.ufo
<glyph name="exclam" format="2">
  <advance width="416"/>
  <unicode hex="0021"/>
  <outline>
    <contour>
      <point x="23" y="770" type="line"/>
      <point x="94" y="258" type="line"/>
      <point x="322" y="258" type="line"/>
      <point x="393" y="770" type="line"/>
    </contour>
    <component base="period" xOffset="46"/>
  </outline>
</glyph>
<glyph name="quotedbl" format="2">
  <advance width="762"/>
  <unicode hex="0022"/>
  <outline>
    <contour>
      <point x="35" y="785" type="line"/>
      <point x="75" y="452" type="line"/>
      <point x="315" y="452" type="line"/>
      <point x="355" y="785" type="line"/>
    </contour>
    <contour>
      <point x="405" y="785" type="line"/>
      <point x="445" y="452" type="line"/>
      <point x="685" y="452" type="line"/>
      <point x="725" y="785" type="line"/>
    </contour>
  </outline>
</glyph>
<glyph name="numbersign" format="2">
  <advance width="1236"/>
  <unicode hex="0023"/>
  <outline>
    <contour>
      <point x="102" y="-21" type="line"/>
      <point x="353" y="-21" type="line"/>
      <point x="692" y="785" type="line"/>
      <point x="443" y="785" type="line"/>
    </contour>
    <contour>
      <point x="529" y="-21" type="line"/>
      <point x="780" y="-21" type="line"/>
      <point x="1119" y="785" type="line"/>
      <point x="870" y="785" type="line"/>
    </contour>
    <contour>
      <point x="130" y="657" type="line"/>
      <point x="130" y="472" type="line"/>
      <point x="1199" y="472" type="line"/>
      <point x="1199" y="657" type="line"/>
    </contour>
    <contour>
      <point x="35" y="315" type="line"/>
      <point x="35" y="130" type="line"/>
      <point x="1113" y="130" type="line"/>
      <point x="1113" y="315" type="line"/>
    </contour>
  </outline>
</glyph>
<glyph name="dollar" format="2">
  <advance width="989"/>
  <unicode hex="0024"/>
  <outline>
    <contour>
      <point x="584" y="862" type="line"/>
      <point x="257" y="-131" type="line"/>
      <point x="397" y="-131" type="line"/>
      <point x="724" y="862" type="line"/>
    </contour>
    <component base="S"/>
  </outline>
</glyph>
<glyph name="percent" format="2">
  <advance width="1314"/>
  <unicode hex="0025"/>
  <outline>
    <contour>
      <point x="238" y="0" type="line"/>
      <point x="513" y="0" type="line"/>
      <point x="1065" y="750" type="line"/>
      <point x="795" y="750" type="line"/>
    </contour>
    <contour>
      <point x="316" y="373" type="curve" smooth="yes"/>
      <point x="469" y="373"/>
      <point x="574" y="455"/>
      <point x="574" y="581" type="curve" smooth="yes"/>
      <point x="574" y="705"/>
      <point x="469" y="785"/>
      <point x="316" y="785" type="curve" smooth="yes"/>
      <point x="163" y="785"/>
      <point x="58" y="705"/>
      <point x="58" y="581" type="curve" smooth="yes"/>
      <point x="58" y="455"/>
      <point x="163" y="373"/>
    </contour>
    <contour>
      <point x="316" y="507" type="curve" smooth="yes"/>
      <point x="271" y="509"/>
      <point x="242" y="534"/>
      <point x="241" y="580" type="curve" smooth="yes"/>
      <point x="240" y="625"/>
      <point x="266" y="650"/>
      <point x="313" y="652" type="curve" smooth="yes"/>
      <point x="361" y="653"/>
      <point x="391" y="630"/>
      <point x="390" y="580" type="curve" smooth="yes"/>
      <point x="389" y="530"/>
      <point x="361" y="506"/>
    </contour>
    <contour>
      <point x="996" y="-27" type="curve" smooth="yes"/>
      <point x="1149" y="-27"/>
      <point x="1254" y="55"/>
      <point x="1254" y="181" type="curve" smooth="yes"/>
      <point x="1254" y="305"/>
      <point x="1149" y="385"/>
      <point x="996" y="385" type="curve" smooth="yes"/>
      <point x="843" y="385"/>
      <point x="738" y="305"/>
      <point x="738" y="181" type="curve" smooth="yes"/>
      <point x="738" y="55"/>
      <point x="843" y="-27"/>
    </contour>
    <contour>
      <point x="996" y="107" type="curve" smooth="yes"/>
      <point x="951" y="109"/>
      <point x="922" y="134"/>
      <point x="921" y="180" type="curve" smooth="yes"/>
      <point x="920" y="225"/>
      <point x="946" y="250"/>
      <point x="993" y="252" type="curve" smooth="yes"/>
      <point x="1041" y="253"/>
      <point x="1071" y="230"/>
      <point x="1070" y="180" type="curve" smooth="yes"/>
      <point x="1069" y="130"/>
      <point x="1041" y="106"/>
    </contour>
  </outline>
</glyph>
<glyph name="ampersand" format="2">
  <advance width="1045"/>
  <unicode hex="0026"/>
  <outline>
    <contour>
      <point x="673" y="573" type="curve"/>
      <point x="673" y="770" type="line"/>
      <point x="645" y="773"/>
      <point x="604" y="775"/>
      <point x="556" y="775" type="curve" smooth="yes"/>
      <point x="202" y="775"/>
      <point x="53" y="703"/>
      <point x="53" y="560" type="curve" smooth="yes"/>
      <point x="53" y="473"/>
      <point x="112" y="417"/>
      <point x="232" y="390" type="curve"/>
      <point x="81" y="367"/>
      <point x="9" y="302"/>
      <point x="9" y="201" type="curve" smooth="yes"/>
      <point x="9" y="39"/>
      <point x="191" y="-25"/>
      <point x="493" y="-25" type="curve" smooth="yes"/>
      <point x="673" y="-25"/>
      <point x="819" y="-2"/>
      <point x="922" y="29" type="curve"/>
      <point x="761" y="220" type="line"/>
      <point x="710" y="202"/>
      <point x="617" y="192"/>
      <point x="538" y="192" type="curve" smooth="yes"/>
      <point x="426" y="192"/>
      <point x="353" y="209"/>
      <point x="353" y="254" type="curve" smooth="yes"/>
      <point x="353" y="287"/>
      <point x="393" y="307"/>
      <point x="573" y="307" type="curve" smooth="yes"/>
      <point x="1008" y="307" type="line"/>
      <point x="1008" y="477" type="line"/>
      <point x="601" y="477" type="line" smooth="yes"/>
      <point x="430" y="477"/>
      <point x="389" y="489"/>
      <point x="389" y="526" type="curve" smooth="yes"/>
      <point x="389" y="563"/>
      <point x="434" y="575"/>
      <point x="577" y="575" type="curve" smooth="yes"/>
      <point x="601" y="575"/>
      <point x="639" y="575"/>
    </contour>
    <contour>
      <point x="692" y="587" type="line"/>
      <point x="692" y="200" type="line"/>
      <point x="912" y="30" type="line"/>
      <point x="922" y="29" type="line"/>
      <point x="921" y="587" type="line"/>
    </contour>
  </outline>
</glyph>
<glyph name="quotesingle" format="2">
  <advance width="392"/>
  <unicode hex="0027"/>
  <outline>
    <contour>
      <point x="35" y="785" type="line"/>
      <point x="75" y="452" type="line"/>
      <point x="315" y="452" type="line"/>
      <point x="355" y="785" type="line"/>
    </contour>
  </outline>
</glyph>
<glyph name="parenleft" format="2">
  <advance width="603"/>
  <unicode hex="0028"/>
  <outline>
    <contour>
      <point x="567" y="590" type="curve"/>
      <point x="567" y="810" type="line"/>
      <point x="217" y="807"/>
      <point x="46" y="634"/>
      <point x="46" y="290" type="curve" smooth="yes"/>
      <point x="46" y="-54"/>
      <point x="218" y="-232"/>
      <point x="567" y="-235" type="curve"/>
      <point x="567" y="-15" type="line"/>
      <point x="428" y="-12"/>
      <point x="356" y="89"/>
      <point x="356" y="290" type="curve" smooth="yes"/>
      <point x="356" y="491"/>
      <point x="428" y="587"/>
    </contour>
  </outline>
</glyph>
<glyph name="asterisk" format="2">
  <advance width="652"/>
  <unicode hex="002A"/>
  <outline>
    <contour>
      <point x="413" y="527" type="line"/>
      <point x="596" y="538" type="line"/>
      <point x="534" y="729" type="line"/>
      <point x="395" y="623" type="line"/>
      <point x="442" y="796" type="line"/>
      <point x="212" y="796" type="line"/>
      <point x="263" y="623" type="line"/>
      <point x="121" y="729" type="line"/>
      <point x="59" y="538" type="line"/>
      <point x="243" y="527" type="line"/>
      <point x="76" y="434" type="line"/>
      <point x="239" y="289" type="line"/>
      <point x="327" y="449" type="line"/>
      <point x="419" y="289" type="line"/>
      <point x="581" y="436" type="line"/>
    </contour>
  </outline>
</glyph>
<glyph name="plus" format="2">
  <advance width="769"/>
  <unicode hex="002B"/>
  <outline>
    <contour>
      <point x="273" y="-50" type="line"/>
      <point x="493" y="-50" type="line"/>
      <point x="493" y="627" type="line"/>
      <point x="273" y="627" type="line"/>
    </contour>
    <contour>
      <point x="732" y="187" type="line"/>
      <point x="732" y="392" type="line"/>
      <point x="35" y="392" type="line"/>
      <point x="35" y="187" type="line"/>
    </contour>
  </outline>
</glyph>
<glyph name="comma" format="2">
  <advance width="423"/>
  <unicode hex="002C"/>
  <outline>
    <contour>
      <point x="43" y="220" type="line"/>
      <point x="-1" y="-188" type="line"/>
      <point x="197" y="-188" type="line"/>
      <point x="351" y="220" type="line"/>
    </contour>
  </outline>
</glyph>
<glyph name="hyphen" format="2">
  <advance width="657"/>
  <unicode hex="002D"/>
  <outline>
    <contour>
      <point x="35" y="427" type="line"/>
      <point x="35" y="167" type="line"/>
      <point x="620" y="167" type="line"/>
      <point x="620" y="427" type="line"/>
    </contour>
  </outline>
</glyph>
<glyph name="slash" format="2">
  <advance width="602"/>
  <unicode hex="002F"/>
  <outline>
    <contour>
      <point x="35" y="-215" type="line"/>
      <point x="296" y="-215" type="line"/>
      <point x="635" y="785" type="line"/>
      <point x="374" y="785" type="line"/>
    </contour>
  </outline>
</glyph>
<glyph name="zero" format="2">
  <advance width="976"/>
  <unicode hex="0030"/>
  <note>
zero
</note>
  <outline>
    <contour>
      <point x="488" y="-26" type="curve" smooth="yes"/>
      <point x="802" y="-26"/>
      <point x="953" y="129"/>
      <point x="953" y="375" type="curve" smooth="yes"/>
      <point x="953" y="620"/>
      <point x="802" y="775"/>
      <point x="488" y="775" type="curve" smooth="yes"/>
      <point x="174" y="775"/>
      <point x="23" y="620"/>
      <point x="23" y="375" type="curve" smooth="yes"/>
      <point x="23" y="129"/>
      <point x="174" y="-26"/>
    </contour>
    <contour>
      <point x="488" y="189" type="curve" smooth="yes"/>
      <point x="396" y="189"/>
      <point x="337" y="250"/>
      <point x="337" y="375" type="curve" smooth="yes"/>
      <point x="337" y="500"/>
      <point x="396" y="561"/>
      <point x="488" y="561" type="curve" smooth="yes"/>
      <point x="580" y="561"/>
      <point x="639" y="500"/>
      <point x="639" y="375" type="curve" smooth="yes"/>
      <point x="639" y="250"/>
      <point x="580" y="189"/>
    </contour>
  </outline>
</glyph>
<glyph name="one" format="2">
  <advance width="675"/>
  <unicode hex="0031"/>
  <note>
one
</note>
  <outline>
    <contour>
      <point x="23" y="330" type="line"/>
      <point x="279" y="330"/>
      <point x="381" y="491"/>
      <point x="381" y="654" type="curve"/>
      <point x="315" y="630" type="line"/>
      <point x="315" y="0" type="line"/>
      <point x="615" y="0" type="line"/>
      <point x="615" y="750" type="line"/>
      <point x="368" y="750" type="line"/>
      <point x="331" y="639"/>
      <point x="238" y="570"/>
      <point x="23" y="559" type="curve"/>
    </contour>
  </outline>
</glyph>
<glyph name="two" format="2">
  <advance width="870"/>
  <unicode hex="0032"/>
  <note>
two
</note>
  <outline>
    <contour>
      <point x="28" y="0" type="line"/>
      <point x="853" y="0" type="line"/>
      <point x="853" y="225" type="line"/>
      <point x="214" y="184" type="line"/>
      <point x="214" y="145" type="line"/>
      <point x="704" y="269"/>
      <point x="831" y="377"/>
      <point x="831" y="525" type="curve" smooth="yes"/>
      <point x="831" y="672"/>
      <point x="697" y="775"/>
      <point x="402" y="775" type="curve" smooth="yes"/>
      <point x="277" y="775"/>
      <point x="159" y="754"/>
      <point x="55" y="711" type="curve"/>
      <point x="55" y="473" type="line"/>
      <point x="137" y="507"/>
      <point x="232" y="534"/>
      <point x="327" y="534" type="curve" smooth="yes"/>
      <point x="418" y="534"/>
      <point x="479" y="508"/>
      <point x="479" y="451" type="curve" smooth="yes"/>
      <point x="479" y="385"/>
      <point x="400" y="328"/>
      <point x="28" y="230" type="curve"/>
    </contour>
  </outline>
</glyph>
<glyph name="three" format="2">
  <advance width="895"/>
  <unicode hex="0033"/>
  <note>
three
</note>
  <outline>
    <contour>
      <point x="59" y="23" type="line"/>
      <point x="157" y="-7"/>
      <point x="256" y="-26"/>
      <point x="396" y="-26" type="curve" smooth="yes"/>
      <point x="693" y="-26"/>
      <point x="848" y="63"/>
      <point x="848" y="230" type="curve" smooth="yes"/>
      <point x="848" y="386"/>
      <point x="698" y="452"/>
      <point x="511" y="422" type="curve"/>
      <point x="802" y="567" type="line"/>
      <point x="802" y="750" type="line"/>
      <point x="67" y="750" type="line"/>
      <point x="67" y="550" type="line"/>
      <point x="694" y="550" type="line"/>
      <point x="618" y="660" type="line"/>
      <point x="204" y="436" type="line"/>
      <point x="204" y="302" type="line"/>
      <point x="369" y="302" type="line" smooth="yes"/>
      <point x="471" y="302"/>
      <point x="537" y="292"/>
      <point x="537" y="250" type="curve" smooth="yes"/>
      <point x="537" y="209"/>
      <point x="473" y="191"/>
      <point x="370" y="191" type="curve" smooth="yes"/>
      <point x="218" y="191"/>
      <point x="115" y="224"/>
      <point x="35" y="254" type="curve"/>
    </contour>
  </outline>
</glyph>
<glyph name="four" format="2">
  <advance width="1025"/>
  <unicode hex="0034"/>
  <note>
four
</note>
  <outline>
    <contour>
      <point x="23" y="121" type="line"/>
      <point x="572" y="121" type="line"/>
      <point x="572" y="0" type="line"/>
      <point x="862" y="0" type="line"/>
      <point x="862" y="131" type="line"/>
      <point x="1002" y="131" type="line"/>
      <point x="1002" y="351" type="line"/>
      <point x="862" y="351" type="line"/>
      <point x="862" y="750" type="line"/>
      <point x="375" y="750" type="line"/>
      <point x="23" y="331" type="line"/>
    </contour>
    <contour>
      <point x="358" y="341" type="line"/>
      <point x="572" y="597" type="line"/>
      <point x="572" y="341" type="line"/>
    </contour>
  </outline>
</glyph>
<glyph name="five" format="2">
  <advance width="941"/>
  <unicode hex="0035"/>
  <note>
five
</note>
  <outline>
    <contour>
      <point x="46" y="41" type="line"/>
      <point x="145" y="1"/>
      <point x="286" y="-26"/>
      <point x="438" y="-26" type="curve" smooth="yes"/>
      <point x="780" y="-26"/>
      <point x="905" y="80"/>
      <point x="905" y="244" type="curve" smooth="yes"/>
      <point x="905" y="384"/>
      <point x="812" y="472"/>
      <point x="575" y="472" type="curve" smooth="yes"/>
      <point x="478" y="472"/>
      <point x="404" y="457"/>
      <point x="347" y="417" type="curve"/>
      <point x="347" y="555" type="line"/>
      <point x="837" y="555" type="line"/>
      <point x="837" y="750" type="line"/>
      <point x="75" y="750" type="line"/>
      <point x="75" y="295" type="line"/>
      <point x="131" y="303"/>
      <point x="234" y="313"/>
      <point x="368" y="313" type="curve" smooth="yes"/>
      <point x="541" y="313"/>
      <point x="595" y="294"/>
      <point x="595" y="250" type="curve" smooth="yes"/>
      <point x="595" y="208"/>
      <point x="544" y="193"/>
      <point x="418" y="193" type="curve" smooth="yes"/>
      <point x="269" y="193"/>
      <point x="158" y="211"/>
      <point x="46" y="249" type="curve"/>
    </contour>
  </outline>
</glyph>
<glyph name="six" format="2">
  <advance width="971"/>
  <unicode hex="0036"/>
  <note>
six
</note>
  <outline>
    <contour>
      <point x="292" y="234" type="line"/>
      <point x="351" y="290"/>
      <point x="437" y="318"/>
      <point x="526" y="318" type="curve" smooth="yes"/>
      <point x="611" y="318"/>
      <point x="658" y="292"/>
      <point x="658" y="241" type="curve" smooth="yes"/>
      <point x="658" y="191"/>
      <point x="610" y="165"/>
      <point x="529" y="165" type="curve" smooth="yes"/>
      <point x="407" y="165"/>
      <point x="319" y="227"/>
      <point x="319" y="378" type="curve" smooth="yes"/>
      <point x="319" y="521"/>
      <point x="419" y="585"/>
      <point x="600" y="585" type="curve" smooth="yes"/>
      <point x="693" y="585"/>
      <point x="785" y="568"/>
      <point x="871" y="522" type="curve"/>
      <point x="868" y="722" type="line"/>
      <point x="786" y="752"/>
      <point x="677" y="775"/>
      <point x="561" y="775" type="curve" smooth="yes"/>
      <point x="207" y="775"/>
      <point x="35" y="604"/>
      <point x="35" y="368" type="curve" smooth="yes"/>
      <point x="35" y="123"/>
      <point x="191" y="-26"/>
      <point x="514" y="-26" type="curve" smooth="yes"/>
      <point x="796" y="-26"/>
      <point x="934" y="90"/>
      <point x="934" y="251" type="curve" smooth="yes"/>
      <point x="934" y="410"/>
      <point x="802" y="492"/>
      <point x="607" y="492" type="curve" smooth="yes"/>
      <point x="440" y="492"/>
      <point x="337" y="429"/>
      <point x="264" y="331" type="curve"/>
    </contour>
  </outline>
</glyph>
<glyph name="seven" format="2">
  <advance width="865"/>
  <unicode hex="0037"/>
  <note>
seven
</note>
  <outline>
    <contour>
      <point x="35" y="525" type="line"/>
      <point x="600" y="525" type="line"/>
      <point x="582" y="675" type="line"/>
      <point x="72" y="0" type="line"/>
      <point x="422" y="0" type="line"/>
      <point x="805" y="510" type="line"/>
      <point x="805" y="750" type="line"/>
      <point x="35" y="750" type="line"/>
    </contour>
  </outline>
</glyph>
<glyph name="eight" format="2">
  <advance width="1020"/>
  <unicode hex="0038"/>
  <note>
eight
</note>
  <outline>
    <contour>
      <point x="52" y="200" type="curve" smooth="yes"/>
      <point x="52" y="52"/>
      <point x="212" y="-25"/>
      <point x="508" y="-25" type="curve" smooth="yes"/>
      <point x="808" y="-25"/>
      <point x="969" y="51"/>
      <point x="969" y="197" type="curve" smooth="yes"/>
      <point x="969" y="294"/>
      <point x="902" y="363"/>
      <point x="745" y="400" type="curve"/>
      <point x="876" y="422"/>
      <point x="945" y="479"/>
      <point x="945" y="566" type="curve" smooth="yes"/>
      <point x="945" y="703"/>
      <point x="797" y="775"/>
      <point x="514" y="775" type="curve" smooth="yes"/>
      <point x="230" y="775"/>
      <point x="76" y="693"/>
      <point x="76" y="566" type="curve" smooth="yes"/>
      <point x="76" y="480"/>
      <point x="145" y="422"/>
      <point x="277" y="398" type="curve"/>
      <point x="119" y="366"/>
      <point x="52" y="298"/>
    </contour>
    <contour>
      <point x="356" y="238" type="curve" smooth="yes"/>
      <point x="356" y="287"/>
      <point x="405" y="313"/>
      <point x="511" y="313" type="curve" smooth="yes"/>
      <point x="617" y="313"/>
      <point x="665" y="287"/>
      <point x="665" y="238" type="curve" smooth="yes"/>
      <point x="665" y="187"/>
      <point x="617" y="163"/>
      <point x="511" y="163" type="curve" smooth="yes"/>
      <point x="405" y="163"/>
      <point x="356" y="187"/>
    </contour>
    <contour>
      <point x="372" y="534" type="curve" smooth="yes"/>
      <point x="372" y="581"/>
      <point x="416" y="601"/>
      <point x="511" y="601" type="curve" smooth="yes"/>
      <point x="605" y="601"/>
      <point x="649" y="581"/>
      <point x="649" y="534" type="curve" smooth="yes"/>
      <point x="649" y="488"/>
      <point x="605" y="466"/>
      <point x="511" y="466" type="curve" smooth="yes"/>
      <point x="416" y="466"/>
      <point x="372" y="488"/>
    </contour>
  </outline>
</glyph>
<glyph name="nine" format="2">
  <advance width="971"/>
  <unicode hex="0039"/>
  <note>
nine
</note>
  <outline>
    <contour>
      <point x="679" y="515" type="line"/>
      <point x="620" y="459"/>
      <point x="529" y="431"/>
      <point x="440" y="431" type="curve" smooth="yes"/>
      <point x="364" y="431"/>
      <point x="317" y="457"/>
      <point x="317" y="508" type="curve" smooth="yes"/>
      <point x="317" y="558"/>
      <point x="365" y="584"/>
      <point x="437" y="584" type="curve" smooth="yes"/>
      <point x="559" y="584"/>
      <point x="662" y="522"/>
      <point x="662" y="371" type="curve" smooth="yes"/>
      <point x="662" y="228"/>
      <point x="552" y="164"/>
      <point x="371" y="164" type="curve" smooth="yes"/>
      <point x="278" y="164"/>
      <point x="186" y="181"/>
      <point x="68" y="237" type="curve"/>
      <point x="71" y="37" type="line"/>
      <point x="162" y="-1"/>
      <point x="294" y="-26"/>
      <point x="420" y="-26" type="curve" smooth="yes"/>
      <point x="764" y="-26"/>
      <point x="936" y="145"/>
      <point x="936" y="381" type="curve" smooth="yes"/>
      <point x="936" y="626"/>
      <point x="775" y="775"/>
      <point x="452" y="775" type="curve" smooth="yes"/>
      <point x="189" y="775"/>
      <point x="51" y="659"/>
      <point x="51" y="498" type="curve" smooth="yes"/>
      <point x="51" y="339"/>
      <point x="183" y="257"/>
      <point x="359" y="257" type="curve" smooth="yes"/>
      <point x="526" y="257"/>
      <point x="634" y="320"/>
      <point x="707" y="418" type="curve"/>
    </contour>
  </outline>
</glyph>
<glyph name="less" format="2">
  <advance width="707"/>
  <unicode hex="003C"/>
  <outline>
    <contour>
      <point x="52" y="245" type="line"/>
      <point x="656" y="385" type="line"/>
      <point x="656" y="600" type="line"/>
      <point x="52" y="430" type="line"/>
    </contour>
    <contour>
      <point x="52" y="360" type="line"/>
      <point x="52" y="173" type="line"/>
      <point x="656" y="-7" type="line"/>
      <point x="656" y="210" type="line"/>
    </contour>
  </outline>
</glyph>
<glyph name="greater" format="2">
  <advance width="707"/>
  <unicode hex="003E"/>
  <outline>
    <contour>
      <point x="656" y="245" type="line"/>
      <point x="656" y="430" type="line"/>
      <point x="52" y="600" type="line"/>
      <point x="52" y="385" type="line"/>
    </contour>
    <contour>
      <point x="656" y="360" type="line"/>
      <point x="52" y="210" type="line"/>
      <point x="52" y="-7" type="line"/>
      <point x="656" y="173" type="line"/>
    </contour>
  </outline>
</glyph>
<glyph name="question" format="2">
  <advance width="826"/>
  <unicode hex="003F"/>
  <outline>
    <contour>
      <point x="23" y="552" type="line"/>
      <point x="119" y="584"/>
      <point x="217" y="605"/>
      <point x="301" y="605" type="curve" smooth="yes"/>
      <point x="407" y="605"/>
      <point x="461" y="573"/>
      <point x="461" y="525" type="curve" smooth="yes"/>
      <point x="461" y="482"/>
      <point x="418" y="442"/>
      <point x="322" y="442" type="curve" smooth="yes"/>
      <point x="246" y="442" type="line"/>
      <point x="246" y="257" type="line"/>
      <point x="345" y="257" type="line" smooth="yes"/>
      <point x="633" y="257"/>
      <point x="803" y="366"/>
      <point x="803" y="544" type="curve" smooth="yes"/>
      <point x="803" y="722"/>
      <point x="633" y="810"/>
      <point x="347" y="810" type="curve" smooth="yes"/>
      <point x="216" y="810"/>
      <point x="112" y="790"/>
      <point x="23" y="760" type="curve"/>
    </contour>
    <component base="period" xOffset="209"/>
  </outline>
</glyph>
<glyph name="at" format="2">
  <advance width="1306"/>
  <unicode hex="0040"/>
  <outline>
    <contour>
      <point x="-13" y="304" type="curve" smooth="yes"/>
      <point x="-13" y="-34"/>
      <point x="240" y="-252"/>
      <point x="635" y="-252" type="curve" smooth="yes"/>
      <point x="747" y="-252"/>
      <point x="871" y="-239"/>
      <point x="952" y="-219" type="curve"/>
      <point x="964" y="-20" type="line"/>
      <point x="898" y="-47"/>
      <point x="789" y="-66"/>
      <point x="684" y="-66" type="curve" smooth="yes"/>
      <point x="392" y="-66"/>
      <point x="204" y="79"/>
      <point x="204" y="304" type="curve" smooth="yes"/>
      <point x="204" y="532"/>
      <point x="386" y="679"/>
      <point x="669" y="679" type="curve" smooth="yes"/>
      <point x="916" y="679"/>
      <point x="1045" y="572"/>
      <point x="1045" y="347" type="curve" smooth="yes"/>
      <point x="1045" y="226"/>
      <point x="1011" y="163"/>
      <point x="944" y="163" type="curve" smooth="yes"/>
      <point x="896" y="163"/>
      <point x="877" y="202"/>
      <point x="891" y="294" type="curve" smooth="yes"/>
      <point x="935" y="584" type="line"/>
      <point x="755" y="584" type="line"/>
      <point x="742" y="471" type="line"/>
      <point x="726" y="529"/>
      <point x="675" y="591"/>
      <point x="572" y="591" type="curve" smooth="yes"/>
      <point x="414" y="591"/>
      <point x="301" y="462"/>
      <point x="301" y="268" type="curve" smooth="yes"/>
      <point x="301" y="117"/>
      <point x="379" y="33"/>
      <point x="505" y="33" type="curve" smooth="yes"/>
      <point x="615" y="33"/>
      <point x="697" y="105"/>
      <point x="722" y="189" type="curve"/>
      <point x="712" y="190" type="line"/>
      <point x="688" y="78"/>
      <point x="761" y="2"/>
      <point x="920" y="2" type="curve" smooth="yes"/>
      <point x="1168" y="2"/>
      <point x="1262" y="186"/>
      <point x="1262" y="374" type="curve" smooth="yes"/>
      <point x="1262" y="678"/>
      <point x="1033" y="864"/>
      <point x="677" y="864" type="curve" smooth="yes"/>
      <point x="257" y="864"/>
      <point x="-13" y="645"/>
    </contour>
    <contour>
      <point x="641" y="209"/>
      <point x="590" y="209" type="curve" smooth="yes"/>
      <point x="543" y="209"/>
      <point x="519" y="244"/>
      <point x="519" y="299" type="curve" smooth="yes"/>
      <point x="519" y="373"/>
      <point x="553" y="422"/>
      <point x="608" y="422" type="curve" smooth="yes"/>
      <point x="652" y="422"/>
      <point x="679" y="387"/>
      <point x="679" y="332" type="curve" smooth="yes"/>
      <point x="679" y="257"/>
    </contour>
  </outline>
</glyph>
<glyph name="A" format="2">
  <advance width="1140"/>
  <unicode hex="0041"/>
  <anchor x="571" y="0" name="bottom"/>
  <anchor x="1089" y="10" name="ogonek"/>
  <anchor x="571" y="750" name="top"/>
  <outline>
    <contour>
      <point x="345" y="0" type="line"/>
      <point x="624" y="670" type="line"/>
      <point x="494" y="670" type="line"/>
      <point x="773" y="0" type="line"/>
      <point x="1136" y="0" type="line"/>
      <point x="769" y="750" type="line"/>
      <point x="370" y="750" type="line"/>
      <point x="6" y="0" type="line"/>
    </contour>
    <contour>
      <point x="347" y="293" type="line"/>
      <point x="337" y="138" type="line"/>
      <point x="770" y="138" type="line"/>
      <point x="770" y="293" type="line"/>
    </contour>
  </outline>
</glyph>
<glyph name="B" format="2">
  <advance width="1000"/>
  <unicode hex="0042"/>
  <anchor x="517" y="0" name="bottom"/>
  <anchor x="517" y="375" name="center"/>
  <anchor x="517" y="750" name="top"/>
  <outline>
    <contour>
      <point x="58" y="0" type="line"/>
      <point x="718" y="0" type="line" smooth="yes"/>
      <point x="885" y="0"/>
      <point x="976" y="76"/>
      <point x="976" y="196" type="curve" smooth="yes"/>
      <point x="976" y="305"/>
      <point x="900" y="383"/>
      <point x="753" y="385" type="curve"/>
      <point x="886" y="394"/>
      <point x="948" y="460"/>
      <point x="948" y="553" type="curve" smooth="yes"/>
      <point x="948" y="673"/>
      <point x="850" y="750"/>
      <point x="672" y="750" type="curve" smooth="yes"/>
      <point x="58" y="750" type="line"/>
    </contour>
    <contour>
      <point x="358" y="456" type="line"/>
      <point x="358" y="575" type="line"/>
      <point x="532" y="575" type="line" smooth="yes"/>
      <point x="603" y="575"/>
      <point x="638" y="560"/>
      <point x="638" y="514" type="curve" smooth="yes"/>
      <point x="638" y="470"/>
      <point x="604" y="456"/>
      <point x="536" y="456" type="curve" smooth="yes"/>
    </contour>
    <contour>
      <point x="358" y="177" type="line"/>
      <point x="358" y="299" type="line"/>
      <point x="540" y="299" type="line" smooth="yes"/>
      <point x="626" y="299"/>
      <point x="666" y="283"/>
      <point x="666" y="234" type="curve" smooth="yes"/>
      <point x="666" y="191"/>
      <point x="638" y="177"/>
      <point x="590" y="177" type="curve" smooth="yes"/>
    </contour>
  </outline>
</glyph>
<glyph name="C" format="2">
  <advance width="925"/>
  <unicode hex="0043"/>
  <anchor x="510" y="0" name="bottom"/>
  <anchor x="510" y="750" name="top"/>
  <outline>
    <contour>
      <point x="865" y="518" type="curve"/>
      <point x="856" y="738" type="line"/>
      <point x="776" y="756"/>
      <point x="675" y="775"/>
      <point x="549" y="775" type="curve" smooth="yes"/>
      <point x="208" y="775"/>
      <point x="23" y="638"/>
      <point x="23" y="372" type="curve" smooth="yes"/>
      <point x="23" y="106"/>
      <point x="212" y="-26"/>
      <point x="549" y="-26" type="curve" smooth="yes"/>
      <point x="688" y="-26"/>
      <point x="791" y="-4"/>
      <point x="872" y="24" type="curve"/>
      <point x="884" y="262" type="line"/>
      <point x="784" y="235"/>
      <point x="708" y="220"/>
      <point x="627" y="220" type="curve" smooth="yes"/>
      <point x="446" y="220"/>
      <point x="371" y="271"/>
      <point x="371" y="382" type="curve" smooth="yes"/>
      <point x="371" y="501"/>
      <point x="442" y="551"/>
      <point x="620" y="551" type="curve" smooth="yes"/>
      <point x="728" y="551"/>
      <point x="798" y="536"/>
    </contour>
  </outline>
</glyph>
<glyph name="D" format="2">
  <advance width="1016"/>
  <unicode hex="0044"/>
  <anchor x="511" y="0" name="bottom"/>
  <anchor x="511" y="375" name="center"/>
  <anchor x="511" y="750" name="top"/>
  <outline>
    <contour>
      <point x="58" y="0" type="line"/>
      <point x="592" y="0" type="line" smooth="yes"/>
      <point x="833" y="0"/>
      <point x="993" y="150"/>
      <point x="993" y="375" type="curve" smooth="yes"/>
      <point x="993" y="600"/>
      <point x="833" y="750"/>
      <point x="592" y="750" type="curve" smooth="yes"/>
      <point x="58" y="750" type="line"/>
    </contour>
    <contour>
      <point x="368" y="215" type="line"/>
      <point x="368" y="535" type="line"/>
      <point x="479" y="535" type="line" smooth="yes"/>
      <point x="613" y="535"/>
      <point x="673" y="477"/>
      <point x="673" y="374" type="curve" smooth="yes"/>
      <point x="673" y="270"/>
      <point x="613" y="215"/>
      <point x="479" y="215" type="curve" smooth="yes"/>
    </contour>
  </outline>
</glyph>
<glyph name="E" format="2">
  <advance width="906"/>
  <unicode hex="0045"/>
  <anchor x="416" y="0" name="bottom"/>
  <anchor x="822" y="10" name="ogonek"/>
  <anchor x="416" y="750" name="top"/>
  <anchor x="34" y="750" name="topleft"/>
  <outline>
    <contour>
      <point x="58" y="0" type="line"/>
      <point x="869" y="0" type="line"/>
      <point x="869" y="200" type="line"/>
      <point x="368" y="200" type="line"/>
      <point x="368" y="298" type="line"/>
      <point x="818" y="298" type="line"/>
      <point x="818" y="464" type="line"/>
      <point x="368" y="464" type="line"/>
      <point x="368" y="560" type="line"/>
      <point x="861" y="560" type="line"/>
      <point x="861" y="750" type="line"/>
      <point x="58" y="750" type="line"/>
    </contour>
  </outline>
</glyph>
<glyph name="F" format="2">
  <advance width="868"/>
  <unicode hex="0046"/>
  <anchor x="308" y="0" name="bottom"/>
  <anchor x="308" y="750" name="top"/>
  <outline>
    <contour>
      <point x="58" y="0" type="line"/>
      <point x="368" y="0" type="line"/>
      <point x="368" y="248" type="line"/>
      <point x="788" y="248" type="line"/>
      <point x="788" y="444" type="line"/>
      <point x="368" y="444" type="line"/>
      <point x="368" y="540" type="line"/>
      <point x="831" y="540" type="line"/>
      <point x="831" y="750" type="line"/>
      <point x="58" y="750" type="line"/>
    </contour>
  </outline>
</glyph>
<glyph name="G" format="2">
  <advance width="992"/>
  <unicode hex="0047"/>
  <anchor x="534" y="0" name="bottom"/>
  <anchor x="523" y="750" name="top"/>
  <outline>
    <contour>
      <point x="23" y="366" type="curve" smooth="yes"/>
      <point x="23" y="99"/>
      <point x="231" y="-26"/>
      <point x="565" y="-26" type="curve" smooth="yes"/>
      <point x="734" y="-26"/>
      <point x="856" y="7"/>
      <point x="933" y="45" type="curve"/>
      <point x="933" y="456" type="line"/>
      <point x="496" y="456" type="line"/>
      <point x="496" y="291" type="line"/>
      <point x="677" y="291" type="line"/>
      <point x="677" y="203" type="line"/>
      <point x="647" y="198"/>
      <point x="617" y="195"/>
      <point x="583" y="195" type="curve" smooth="yes"/>
      <point x="430" y="195"/>
      <point x="363" y="254"/>
      <point x="363" y="377" type="curve" smooth="yes"/>
      <point x="363" y="505"/>
      <point x="437" y="559"/>
      <point x="604" y="559" type="curve" smooth="yes"/>
      <point x="676" y="559"/>
      <point x="767" y="553"/>
      <point x="902" y="526" type="curve"/>
      <point x="891" y="741" type="line"/>
      <point x="813" y="758"/>
      <point x="682" y="775"/>
      <point x="559" y="775" type="curve" smooth="yes"/>
      <point x="214" y="775"/>
      <point x="23" y="623"/>
    </contour>
  </outline>
</glyph>
<glyph name="H" format="2">
  <advance width="1010"/>
  <unicode hex="0048"/>
  <anchor x="504" y="0" name="bottom"/>
  <anchor x="504" y="375" name="center"/>
  <anchor x="504" y="750" name="top"/>
  <anchor x="58" y="750" name="topleft"/>
  <outline>
    <contour>
      <point x="58" y="0" type="line"/>
      <point x="368" y="0" type="line"/>
      <point x="368" y="277" type="line"/>
      <point x="640" y="277" type="line"/>
      <point x="640" y="0" type="line"/>
      <point x="950" y="0" type="line"/>
      <point x="950" y="750" type="line"/>
      <point x="640" y="750" type="line"/>
      <point x="640" y="477" type="line"/>
      <point x="368" y="477" type="line"/>
      <point x="368" y="750" type="line"/>
      <point x="58" y="750" type="line"/>
    </contour>
  </outline>
</glyph>
<glyph name="I" format="2">
  <advance width="428"/>
  <unicode hex="0049"/>
  <anchor x="213" y="0" name="bottom"/>
  <anchor x="321" y="10" name="ogonek"/>
  <anchor x="213" y="750" name="top"/>
  <anchor x="28" y="750" name="topleft"/>
  <outline>
    <contour>
      <point x="58" y="0" type="line"/>
      <point x="368" y="0" type="line"/>
      <point x="368" y="750" type="line"/>
      <point x="58" y="750" type="line"/>
    </contour>
  </outline>
</glyph>
<glyph name="J" format="2">
  <advance width="798"/>
  <unicode hex="004A"/>
  <anchor x="396" y="0" name="bottom"/>
  <anchor x="480" y="750" name="top"/>
  <outline>
    <contour>
      <point x="29" y="10" type="line"/>
      <point x="87" y="-9"/>
      <point x="160" y="-25"/>
      <point x="267" y="-25" type="curve" smooth="yes"/>
      <point x="570" y="-25"/>
      <point x="738" y="105"/>
      <point x="738" y="296" type="curve" smooth="yes"/>
      <point x="738" y="750" type="line"/>
      <point x="428" y="750" type="line"/>
      <point x="428" y="409" type="line" smooth="yes"/>
      <point x="428" y="259"/>
      <point x="373" y="210"/>
      <point x="192" y="210" type="curve" smooth="yes"/>
      <point x="124" y="210"/>
      <point x="74" y="217"/>
      <point x="29" y="232" type="curve"/>
    </contour>
    <contour>
      <point x="180" y="750" type="line"/>
      <point x="180" y="545" type="line"/>
      <point x="568" y="545" type="line"/>
      <point x="568" y="750" type="line"/>
    </contour>
  </outline>
</glyph>
<glyph name="K" format="2">
  <advance width="1069"/>
  <unicode hex="004B"/>
  <anchor x="552" y="0" name="bottom"/>
  <anchor x="552" y="750" name="top"/>
  <outline>
    <contour>
      <point x="58" y="0" type="line"/>
      <point x="368" y="0" type="line"/>
      <point x="368" y="750" type="line"/>
      <point x="58" y="750" type="line"/>
    </contour>
    <contour>
      <point x="657" y="0" type="line"/>
      <point x="1045" y="0" type="line"/>
      <point x="621" y="448" type="line"/>
      <point x="500" y="474" type="line"/>
      <point x="301" y="412" type="line"/>
    </contour>
    <contour>
      <point x="650" y="750" type="line"/>
      <point x="202" y="395" type="line"/>
      <point x="316" y="199" type="line"/>
      <point x="471" y="321" type="line"/>
      <point x="577" y="387" type="line"/>
      <point x="1030" y="750" type="line"/>
    </contour>
  </outline>
</glyph>
<glyph name="L" format="2">
  <advance width="862"/>
  <unicode hex="004C"/>
  <anchor x="433" y="0" name="bottom"/>
  <anchor x="433" y="375" name="center"/>
  <anchor x="283" y="750" name="top"/>
  <anchor x="399" y="750" name="topright"/>
  <outline>
    <contour>
      <point x="58" y="0" type="line"/>
      <point x="368" y="0" type="line"/>
      <point x="838" y="0" type="line"/>
      <point x="838" y="230" type="line"/>
      <point x="368" y="230" type="line"/>
      <point x="368" y="750" type="line"/>
      <point x="58" y="750" type="line"/>
    </contour>
  </outline>
</glyph>
<glyph name="M" format="2">
  <advance width="1204"/>
  <unicode hex="004D"/>
  <anchor x="382" y="0" name="bottom"/>
  <anchor x="373" y="750" name="top"/>
  <outline>
    <contour>
      <point x="58" y="0" type="line"/>
      <point x="358" y="0" type="line"/>
      <point x="358" y="610" type="line"/>
      <point x="296" y="585" type="line"/>
      <point x="508" y="0" type="line"/>
      <point x="694" y="0" type="line"/>
      <point x="905" y="585" type="line"/>
      <point x="844" y="590" type="line"/>
      <point x="844" y="0" type="line"/>
      <point x="1144" y="0" type="line"/>
      <point x="1144" y="750" type="line"/>
      <point x="749" y="750" type="line"/>
      <point x="577" y="288" type="line"/>
      <point x="625" y="288" type="line"/>
      <point x="452" y="750" type="line"/>
      <point x="58" y="750" type="line"/>
    </contour>
  </outline>
</glyph>
<glyph name="N" format="2">
  <advance width="1089"/>
  <unicode hex="004E"/>
  <anchor x="544" y="0" name="bottom"/>
  <anchor x="544" y="750" name="top"/>
  <outline>
    <contour>
      <point x="58" y="0" type="line"/>
      <point x="358" y="0" type="line"/>
      <point x="358" y="610" type="line"/>
      <point x="286" y="585" type="line"/>
      <point x="608" y="0" type="line"/>
      <point x="1029" y="0" type="line"/>
      <point x="1029" y="750" type="line"/>
      <point x="729" y="750" type="line"/>
      <point x="729" y="288" type="line"/>
      <point x="753" y="288" type="line"/>
      <point x="502" y="750" type="line"/>
      <point x="58" y="750" type="line"/>
    </contour>
  </outline>
</glyph>
<glyph name="O" format="2">
  <advance width="1056"/>
  <unicode hex="004F"/>
  <anchor x="528" y="0" name="bottom"/>
  <anchor x="528" y="375" name="center"/>
  <anchor x="948" y="10" name="ogonek"/>
  <anchor x="528" y="750" name="top"/>
  <anchor x="23" y="750" name="topleft"/>
  <anchor x="1033" y="750" name="topright"/>
  <outline>
    <contour>
      <point x="528" y="-26" type="curve" smooth="yes"/>
      <point x="860" y="-26"/>
      <point x="1033" y="129"/>
      <point x="1033" y="375" type="curve" smooth="yes"/>
      <point x="1033" y="620"/>
      <point x="860" y="775"/>
      <point x="528" y="775" type="curve" smooth="yes"/>
      <point x="196" y="775"/>
      <point x="23" y="620"/>
      <point x="23" y="375" type="curve" smooth="yes"/>
      <point x="23" y="129"/>
      <point x="196" y="-26"/>
    </contour>
    <contour>
      <point x="528" y="204" type="curve" smooth="yes"/>
      <point x="416" y="204"/>
      <point x="363" y="263"/>
      <point x="363" y="375" type="curve" smooth="yes"/>
      <point x="363" y="491"/>
      <point x="416" y="550"/>
      <point x="530" y="547" type="curve" smooth="yes"/>
      <point x="640" y="544"/>
      <point x="693" y="485"/>
      <point x="693" y="375" type="curve" smooth="yes"/>
      <point x="693" y="263"/>
      <point x="640" y="204"/>
    </contour>
  </outline>
</glyph>
<glyph name="P" format="2">
  <advance width="989"/>
  <unicode hex="0050"/>
  <anchor x="497" y="0" name="bottom"/>
  <anchor x="497" y="750" name="top"/>
  <outline>
    <contour>
      <point x="58" y="0" type="line"/>
      <point x="368" y="0" type="line"/>
      <point x="368" y="220" type="line"/>
      <point x="724" y="220" type="line" smooth="yes"/>
      <point x="877" y="220"/>
      <point x="975" y="326"/>
      <point x="975" y="491" type="curve" smooth="yes"/>
      <point x="975" y="649"/>
      <point x="877" y="750"/>
      <point x="724" y="750" type="curve" smooth="yes"/>
      <point x="58" y="750" type="line"/>
    </contour>
    <contour>
      <point x="368" y="420" type="line"/>
      <point x="368" y="550" type="line"/>
      <point x="547" y="550" type="line" smooth="yes"/>
      <point x="619" y="550"/>
      <point x="655" y="536"/>
      <point x="655" y="485" type="curve" smooth="yes"/>
      <point x="655" y="436"/>
      <point x="620" y="420"/>
      <point x="554" y="420" type="curve" smooth="yes"/>
    </contour>
  </outline>
</glyph>
<glyph name="Q" format="2">
  <advance width="1056"/>
  <unicode hex="0051"/>
  <anchor x="528" y="0" name="bottom"/>
  <anchor x="528" y="750" name="top"/>
  <outline>
    <contour>
      <point x="528" y="-20" type="curve" smooth="yes"/>
      <point x="860" y="-20"/>
      <point x="1033" y="129"/>
      <point x="1033" y="375" type="curve" smooth="yes"/>
      <point x="1033" y="620"/>
      <point x="860" y="775"/>
      <point x="528" y="775" type="curve" smooth="yes"/>
      <point x="196" y="775"/>
      <point x="23" y="620"/>
      <point x="23" y="375" type="curve" smooth="yes"/>
      <point x="23" y="129"/>
      <point x="196" y="-20"/>
    </contour>
    <contour>
      <point x="528" y="204" type="curve" smooth="yes"/>
      <point x="416" y="204"/>
      <point x="363" y="263"/>
      <point x="363" y="375" type="curve" smooth="yes"/>
      <point x="363" y="491"/>
      <point x="416" y="550"/>
      <point x="530" y="547" type="curve" smooth="yes"/>
      <point x="640" y="544"/>
      <point x="693" y="485"/>
      <point x="693" y="375" type="curve" smooth="yes"/>
      <point x="693" y="263"/>
      <point x="640" y="204"/>
    </contour>
    <contour>
      <point x="357" y="44" type="line"/>
      <point x="627" y="-200" type="line"/>
      <point x="997" y="-200" type="line"/>
      <point x="675" y="94" type="line"/>
    </contour>
  </outline>
</glyph>
<glyph name="R" format="2">
  <advance width="997"/>
  <unicode hex="0052"/>
  <anchor x="502" y="0" name="bottom"/>
  <anchor x="502" y="750" name="top"/>
  <outline>
    <contour>
      <point x="58" y="0" type="line"/>
      <point x="368" y="0" type="line"/>
      <point x="368" y="260" type="line"/>
      <point x="383" y="260" type="line"/>
      <point x="620" y="0" type="line"/>
      <point x="996" y="0" type="line"/>
      <point x="724" y="262" type="line"/>
      <point x="869" y="273"/>
      <point x="975" y="341"/>
      <point x="975" y="491" type="curve" smooth="yes"/>
      <point x="975" y="649"/>
      <point x="877" y="750"/>
      <point x="724" y="750" type="curve" smooth="yes"/>
      <point x="58" y="750" type="line"/>
    </contour>
    <contour>
      <point x="368" y="424" type="line"/>
      <point x="368" y="554" type="line"/>
      <point x="547" y="554" type="line" smooth="yes"/>
      <point x="619" y="554"/>
      <point x="655" y="540"/>
      <point x="655" y="489" type="curve" smooth="yes"/>
      <point x="655" y="440"/>
      <point x="620" y="424"/>
      <point x="554" y="424" type="curve" smooth="yes"/>
    </contour>
  </outline>
</glyph>
<glyph name="S" format="2">
  <advance width="989"/>
  <unicode hex="0053"/>
  <anchor x="495" y="0" name="bottom"/>
  <anchor x="495" y="750" name="top"/>
  <outline>
    <contour>
      <point x="59" y="536" type="curve" smooth="yes"/>
      <point x="59" y="199"/>
      <point x="613" y="338"/>
      <point x="613" y="236" type="curve" smooth="yes"/>
      <point x="613" y="209"/>
      <point x="575" y="192"/>
      <point x="466" y="192" type="curve" smooth="yes"/>
      <point x="312" y="192"/>
      <point x="163" y="226"/>
      <point x="58" y="284" type="curve"/>
      <point x="68" y="56" type="line"/>
      <point x="201" y="6"/>
      <point x="346" y="-26"/>
      <point x="520" y="-26" type="curve" smooth="yes"/>
      <point x="795" y="-26"/>
      <point x="952" y="64"/>
      <point x="952" y="243" type="curve" smooth="yes"/>
      <point x="952" y="579"/>
      <point x="395" y="429"/>
      <point x="395" y="532" type="curve" smooth="yes"/>
      <point x="395" y="558"/>
      <point x="431" y="574"/>
      <point x="539" y="574" type="curve" smooth="yes"/>
      <point x="654" y="574"/>
      <point x="779" y="557"/>
      <point x="907" y="517" type="curve"/>
      <point x="898" y="735" type="line"/>
      <point x="793" y="758"/>
      <point x="667" y="780"/>
      <point x="496" y="780" type="curve" smooth="yes"/>
      <point x="210" y="780"/>
      <point x="59" y="705"/>
    </contour>
  </outline>
</glyph>
<glyph name="T" format="2">
  <advance width="942"/>
  <unicode hex="0054"/>
  <anchor x="470" y="0" name="bottom"/>
  <anchor x="470" y="375" name="center"/>
  <anchor x="470" y="750" name="top"/>
  <outline>
    <contour>
      <point x="35" y="510" type="line"/>
      <point x="315" y="510" type="line"/>
      <point x="315" y="0" type="line"/>
      <point x="625" y="0" type="line"/>
      <point x="625" y="511" type="line"/>
      <point x="905" y="511" type="line"/>
      <point x="905" y="750" type="line"/>
      <point x="35" y="750" type="line"/>
    </contour>
  </outline>
</glyph>
<glyph name="U" format="2">
  <advance width="1014"/>
  <unicode hex="0055"/>
  <anchor x="506" y="0" name="bottom"/>
  <anchor x="668" y="10" name="ogonek"/>
  <anchor x="506" y="750" name="top"/>
  <anchor x="984" y="750" name="topright"/>
  <outline>
    <contour>
      <point x="58" y="292" type="line" smooth="yes"/>
      <point x="58" y="84"/>
      <point x="209" y="-25"/>
      <point x="507" y="-25" type="curve" smooth="yes"/>
      <point x="804" y="-25"/>
      <point x="954" y="91"/>
      <point x="954" y="312" type="curve" smooth="yes"/>
      <point x="954" y="750" type="line"/>
      <point x="644" y="750" type="line"/>
      <point x="644" y="389" type="line" smooth="yes"/>
      <point x="644" y="243"/>
      <point x="611" y="195"/>
      <point x="508" y="195" type="curve" smooth="yes"/>
      <point x="402" y="195"/>
      <point x="368" y="243"/>
      <point x="368" y="389" type="curve" smooth="yes"/>
      <point x="368" y="750" type="line"/>
      <point x="58" y="750" type="line"/>
    </contour>
  </outline>
</glyph>
<glyph name="V" format="2">
  <advance width="1106"/>
  <unicode hex="0056"/>
  <anchor x="282" y="0" name="bottom"/>
  <anchor x="282" y="750" name="top"/>
  <outline>
    <contour>
      <point x="382" y="750" type="line"/>
      <point x="17" y="750" type="line"/>
      <point x="358" y="0" type="line"/>
      <point x="757" y="0" type="line"/>
      <point x="1087" y="750" type="line"/>
      <point x="748" y="750" type="line"/>
      <point x="503" y="100" type="line"/>
      <point x="635" y="100" type="line"/>
    </contour>
  </outline>
</glyph>
<glyph name="W" format="2">
  <advance width="1446"/>
  <unicode hex="0057"/>
  <anchor x="724" y="0" name="bottom"/>
  <anchor x="724" y="750" name="top"/>
  <outline>
    <contour>
      <point x="6" y="750" type="line"/>
      <point x="266" y="0" type="line"/>
      <point x="604" y="0" type="line"/>
      <point x="809" y="707" type="line"/>
      <point x="634" y="707" type="line"/>
      <point x="840" y="0" type="line"/>
      <point x="1182" y="0" type="line"/>
      <point x="1442" y="750" type="line"/>
      <point x="1136" y="750" type="line"/>
      <point x="909" y="40" type="line"/>
      <point x="1072" y="40" type="line"/>
      <point x="879" y="750" type="line"/>
      <point x="579" y="750" type="line"/>
      <point x="388" y="40" type="line"/>
      <point x="551" y="40" type="line"/>
      <point x="325" y="750" type="line"/>
    </contour>
  </outline>
</glyph>
<glyph name="X" format="2">
  <advance width="1071"/>
  <unicode hex="0058"/>
  <anchor x="378" y="0" name="bottom"/>
  <anchor x="378" y="750" name="top"/>
  <outline>
    <contour>
      <point x="704" y="0" type="line"/>
      <point x="1071" y="0" type="line"/>
      <point x="732" y="383" type="line"/>
      <point x="1071" y="750" type="line"/>
      <point x="716" y="750" type="line"/>
      <point x="548" y="553" type="line"/>
      <point x="377" y="750" type="line"/>
      <point x="11" y="750" type="line"/>
      <point x="328" y="389" type="line"/>
      <point x="0" y="0" type="line"/>
      <point x="356" y="0" type="line"/>
      <point x="522" y="218" type="line"/>
    </contour>
  </outline>
</glyph>
<glyph name="Y" format="2">
  <advance width="1086"/>
  <unicode hex="0059"/>
  <anchor x="542" y="0" name="bottom"/>
  <anchor x="542" y="750" name="top"/>
  <anchor x="22" y="750" name="topleft"/>
  <outline>
    <contour>
      <point x="388" y="750" type="line"/>
      <point x="12" y="750" type="line"/>
      <point x="366" y="260" type="line"/>
      <point x="720" y="260" type="line"/>
      <point x="1072" y="750" type="line"/>
      <point x="717" y="750" type="line"/>
      <point x="417" y="258" type="line"/>
      <point x="692" y="258" type="line"/>
    </contour>
    <contour>
      <point x="363" y="0" type="line"/>
      <point x="723" y="0" type="line"/>
      <point x="723" y="335" type="line"/>
      <point x="363" y="335" type="line"/>
    </contour>
  </outline>
</glyph>
<glyph name="Z" format="2">
  <advance width="1028"/>
  <unicode hex="005A"/>
  <anchor x="513" y="0" name="bottom"/>
  <anchor x="513" y="375" name="center"/>
  <anchor x="513" y="750" name="top"/>
  <outline>
    <contour>
      <point x="58" y="0" type="line"/>
      <point x="968" y="0" type="line"/>
      <point x="968" y="230" type="line"/>
      <point x="229" y="219" type="line"/>
      <point x="283" y="78" type="line"/>
      <point x="945" y="521" type="line"/>
      <point x="945" y="750" type="line"/>
      <point x="83" y="750" type="line"/>
      <point x="83" y="530" type="line"/>
      <point x="800" y="540" type="line"/>
      <point x="743" y="680" type="line"/>
      <point x="58" y="230" type="line"/>
    </contour>
  </outline>
</glyph>
<glyph name="bracketleft" format="2">
  <advance width="563"/>
  <unicode hex="005B"/>
  <outline>
    <contour>
      <point x="526" y="610" type="line"/>
      <point x="526" y="810" type="line"/>
      <point x="35" y="810" type="line"/>
      <point x="35" y="-235" type="line"/>
      <point x="526" y="-235" type="line"/>
      <point x="526" y="-40" type="line"/>
      <point x="325" y="-40" type="line"/>
      <point x="325" y="610" type="line"/>
    </contour>
  </outline>
</glyph>
<glyph name="backslash" format="2">
  <advance width="603"/>
  <unicode hex="005C"/>
  <outline>
    <contour>
      <point x="632" y="-215" type="line"/>
      <point x="293" y="785" type="line"/>
      <point x="35" y="785" type="line"/>
      <point x="374" y="-215" type="line"/>
    </contour>
  </outline>
</glyph>
<glyph name="asciicircum" format="2">
  <advance width="742"/>
  <unicode hex="005E"/>
  <anchor x="371" y="560" name="_top"/>
  <anchor x="371" y="820" name="top"/>
  <outline>
    <contour>
      <point x="173" y="820" type="line"/>
      <point x="35" y="539" type="line"/>
      <point x="286" y="539" type="line"/>
      <point x="415" y="774" type="line"/>
      <point x="325" y="774" type="line"/>
      <point x="454" y="539" type="line"/>
      <point x="705" y="539" type="line"/>
      <point x="567" y="820" type="line"/>
    </contour>
  </outline>
</glyph>
<glyph name="underscore" format="2">
  <advance width="892"/>
  <unicode hex="005F"/>
  <outline>
    <contour>
      <point x="35" y="0" type="line"/>
      <point x="35" y="-215" type="line"/>
      <point x="855" y="-215" type="line"/>
      <point x="855" y="0" type="line"/>
    </contour>
  </outline>
</glyph>
<glyph name="a" format="2">
  <advance width="775"/>
  <unicode hex="0061"/>
  <anchor x="385" y="0" name="bottom"/>
  <anchor x="691" y="10" name="ogonek"/>
  <anchor x="385" y="570" name="top"/>
  <outline>
    <contour>
      <point x="12" y="129" type="curve" smooth="yes"/>
      <point x="12" y="34"/>
      <point x="85" y="-26"/>
      <point x="198" y="-26" type="curve" smooth="yes"/>
      <point x="303" y="-26"/>
      <point x="395" y="24"/>
      <point x="458" y="120" type="curve"/>
      <point x="458" y="0" type="line"/>
      <point x="738" y="0" type="line"/>
      <point x="738" y="297" type="line" smooth="yes"/>
      <point x="738" y="491"/>
      <point x="607" y="597"/>
      <point x="367" y="597" type="curve" smooth="yes"/>
      <point x="254" y="597"/>
      <point x="130" y="576"/>
      <point x="58" y="550" type="curve"/>
      <point x="58" y="372" type="line"/>
      <point x="160" y="400"/>
      <point x="225" y="409"/>
      <point x="295" y="409" type="curve" smooth="yes"/>
      <point x="400" y="409"/>
      <point x="447" y="380"/>
      <point x="447" y="325" type="curve" smooth="yes"/>
      <point x="447" y="321" type="line"/>
      <point x="430" y="321" type="line" smooth="yes"/>
      <point x="133" y="321"/>
      <point x="12" y="252"/>
    </contour>
    <contour>
      <point x="277" y="168" type="curve" smooth="yes"/>
      <point x="277" y="212"/>
      <point x="321" y="231"/>
      <point x="434" y="231" type="curve" smooth="yes"/>
      <point x="447" y="231" type="line"/>
      <point x="447" y="187" type="line"/>
      <point x="393" y="135"/>
      <point x="356" y="124"/>
      <point x="329" y="124" type="curve" smooth="yes"/>
      <point x="299" y="124"/>
      <point x="277" y="137"/>
    </contour>
  </outline>
</glyph>
<glyph name="b" format="2">
  <advance width="863"/>
  <unicode hex="0062"/>
  <anchor x="432" y="0" name="bottom"/>
  <anchor x="432" y="785" name="top"/>
  <outline>
    <contour>
      <point x="575" y="594" type="curve" smooth="yes"/>
      <point x="480" y="594"/>
      <point x="388" y="552"/>
      <point x="335" y="431" type="curve"/>
      <point x="335" y="800" type="line"/>
      <point x="35" y="800" type="line"/>
      <point x="35" y="0" type="line"/>
      <point x="335" y="0" type="line"/>
      <point x="335" y="121" type="line"/>
      <point x="391" y="23"/>
      <point x="486" y="-24"/>
      <point x="576" y="-24" type="curve" smooth="yes"/>
      <point x="737" y="-24"/>
      <point x="840" y="98"/>
      <point x="840" y="276" type="curve" smooth="yes"/>
      <point x="840" y="470"/>
      <point x="733" y="594"/>
    </contour>
    <contour>
      <point x="442" y="408" type="curve" smooth="yes"/>
      <point x="498" y="408"/>
      <point x="525" y="362"/>
      <point x="525" y="278" type="curve" smooth="yes"/>
      <point x="525" y="194"/>
      <point x="498" y="148"/>
      <point x="442" y="148" type="curve" smooth="yes"/>
      <point x="386" y="148"/>
      <point x="358" y="194"/>
      <point x="358" y="277" type="curve" smooth="yes"/>
      <point x="358" y="285" type="line" smooth="yes"/>
      <point x="358" y="364"/>
      <point x="392" y="408"/>
    </contour>
  </outline>
</glyph>
<glyph name="c" format="2">
  <advance width="737"/>
  <unicode hex="0063"/>
  <anchor x="417" y="0" name="bottom"/>
  <anchor x="380" y="570" name="top"/>
  <outline>
    <contour>
      <point x="429" y="594" type="curve" smooth="yes"/>
      <point x="173" y="594"/>
      <point x="23" y="477"/>
      <point x="23" y="276" type="curve" smooth="yes"/>
      <point x="23" y="90"/>
      <point x="170" y="-24"/>
      <point x="444" y="-24" type="curve" smooth="yes"/>
      <point x="536" y="-24"/>
      <point x="616" y="-12"/>
      <point x="691" y="18" type="curve"/>
      <point x="701" y="219" type="line"/>
      <point x="650" y="198"/>
      <point x="590" y="187"/>
      <point x="525" y="187" type="curve" smooth="yes"/>
      <point x="402" y="187"/>
      <point x="338" y="224"/>
      <point x="338" y="296" type="curve" smooth="yes"/>
      <point x="338" y="362"/>
      <point x="396" y="396"/>
      <point x="506" y="396" type="curve" smooth="yes"/>
      <point x="573" y="396"/>
      <point x="640" y="384"/>
      <point x="690" y="362" type="curve"/>
      <point x="685" y="545" type="line"/>
      <point x="604" y="582"/>
      <point x="510" y="594"/>
    </contour>
  </outline>
</glyph>
<glyph name="d" format="2">
  <advance width="868"/>
  <unicode hex="0064"/>
  <anchor x="434" y="0" name="bottom"/>
  <anchor x="434" y="285" name="center"/>
  <anchor x="434" y="800" name="top"/>
  <anchor x="869" y="892" name="topright"/>
  <outline>
    <contour>
      <point x="295" y="593" type="curve" smooth="yes"/>
      <point x="122" y="593"/>
      <point x="23" y="459"/>
      <point x="23" y="280" type="curve" smooth="yes"/>
      <point x="23" y="103"/>
      <point x="131" y="-24"/>
      <point x="301" y="-24" type="curve" smooth="yes"/>
      <point x="407" y="-24"/>
      <point x="479" y="21"/>
      <point x="532" y="111" type="curve"/>
      <point x="532" y="0" type="line"/>
      <point x="832" y="0" type="line"/>
      <point x="832" y="800" type="line"/>
      <point x="532" y="800" type="line"/>
      <point x="532" y="456" type="line"/>
      <point x="486" y="548"/>
      <point x="401" y="593"/>
    </contour>
    <contour>
      <point x="426" y="422" type="curve" smooth="yes"/>
      <point x="482" y="422"/>
      <point x="510" y="376"/>
      <point x="510" y="293" type="curve" smooth="yes"/>
      <point x="510" y="285" type="line" smooth="yes"/>
      <point x="510" y="206"/>
      <point x="476" y="162"/>
      <point x="426" y="162" type="curve" smooth="yes"/>
      <point x="370" y="161"/>
      <point x="343" y="207"/>
      <point x="343" y="291" type="curve" smooth="yes"/>
      <point x="343" y="376"/>
      <point x="370" y="422"/>
    </contour>
  </outline>
</glyph>
<glyph name="e" format="2">
  <advance width="796"/>
  <unicode hex="0065"/>
  <anchor x="398" y="0" name="bottom"/>
  <anchor x="631" y="10" name="ogonek"/>
  <anchor x="398" y="570" name="top"/>
  <outline>
    <contour>
      <point x="23" y="279" type="curve" smooth="yes"/>
      <point x="23" y="86"/>
      <point x="184" y="-24"/>
      <point x="468" y="-24" type="curve" smooth="yes"/>
      <point x="586" y="-24"/>
      <point x="673" y="-7"/>
      <point x="760" y="26" type="curve"/>
      <point x="767" y="191" type="line"/>
      <point x="686" y="166"/>
      <point x="593" y="151"/>
      <point x="517" y="151" type="curve" smooth="yes"/>
      <point x="406" y="151"/>
      <point x="339" y="180"/>
      <point x="311" y="242" type="curve"/>
      <point x="768" y="242" type="line"/>
      <point x="768" y="314" type="line" smooth="yes"/>
      <point x="768" y="486"/>
      <point x="632" y="597"/>
      <point x="420" y="597" type="curve" smooth="yes"/>
      <point x="170" y="597"/>
      <point x="23" y="479"/>
    </contour>
    <contour>
      <point x="309" y="332" type="line"/>
      <point x="309" y="392"/>
      <point x="342" y="432"/>
      <point x="397" y="432" type="curve" smooth="yes"/>
      <point x="450" y="432"/>
      <point x="479" y="392"/>
      <point x="479" y="332" type="curve"/>
    </contour>
  </outline>
</glyph>
<glyph name="f" format="2">
  <advance width="671"/>
  <unicode hex="0066"/>
  <anchor x="338" y="0" name="bottom"/>
  <anchor x="338" y="800" name="top"/>
  <outline>
    <contour>
      <point x="6" y="348" type="line"/>
      <point x="113" y="348" type="line"/>
      <point x="113" y="0" type="line"/>
      <point x="413" y="0" type="line"/>
      <point x="413" y="348" type="line"/>
      <point x="625" y="348" type="line"/>
      <point x="625" y="533" type="line"/>
      <point x="413" y="533" type="line"/>
      <point x="413" y="544" type="line" smooth="yes"/>
      <point x="413" y="587"/>
      <point x="459" y="610"/>
      <point x="543" y="610" type="curve" smooth="yes"/>
      <point x="596" y="610"/>
      <point x="644" y="601"/>
      <point x="687" y="584" type="curve"/>
      <point x="672" y="785" type="line"/>
      <point x="617" y="801"/>
      <point x="558" y="810"/>
      <point x="473" y="810" type="curve" smooth="yes"/>
      <point x="221" y="810"/>
      <point x="113" y="693"/>
      <point x="113" y="551" type="curve" smooth="yes"/>
      <point x="113" y="533" type="line"/>
      <point x="6" y="533" type="line"/>
    </contour>
  </outline>
</glyph>
<glyph name="g" format="2">
  <advance width="868"/>
  <unicode hex="0067"/>
  <anchor x="433" y="-200" name="bottom"/>
  <anchor x="433" y="570" name="top"/>
  <outline>
    <contour>
      <point x="23" y="291" type="curve" smooth="yes"/>
      <point x="23" y="116"/>
      <point x="136" y="21"/>
      <point x="307" y="21" type="curve" smooth="yes"/>
      <point x="412" y="21"/>
      <point x="479" y="59"/>
      <point x="532" y="121" type="curve"/>
      <point x="532" y="118" type="line" smooth="yes"/>
      <point x="532" y="-8"/>
      <point x="421" y="-48"/>
      <point x="300" y="-48" type="curve" smooth="yes"/>
      <point x="223" y="-48"/>
      <point x="145" y="-31"/>
      <point x="67" y="3" type="curve"/>
      <point x="83" y="-205" type="line"/>
      <point x="151" y="-235"/>
      <point x="232" y="-250"/>
      <point x="339" y="-250" type="curve" smooth="yes"/>
      <point x="632" y="-250"/>
      <point x="831" y="-139"/>
      <point x="832" y="90" type="curve" smooth="yes"/>
      <point x="832" y="570" type="line"/>
      <point x="532" y="570" type="line"/>
      <point x="532" y="456" type="line"/>
      <point x="486" y="548"/>
      <point x="401" y="593"/>
      <point x="297" y="593" type="curve" smooth="yes"/>
      <point x="122" y="593"/>
      <point x="23" y="460"/>
    </contour>
    <contour>
      <point x="343" y="300" type="curve" smooth="yes"/>
      <point x="343" y="376"/>
      <point x="370" y="422"/>
      <point x="426" y="422" type="curve" smooth="yes"/>
      <point x="482" y="422"/>
      <point x="510" y="376"/>
      <point x="510" y="306" type="curve" smooth="yes"/>
      <point x="510" y="298" type="line" smooth="yes"/>
      <point x="510" y="219"/>
      <point x="478" y="182"/>
      <point x="426" y="182" type="curve" smooth="yes"/>
      <point x="372" y="181"/>
      <point x="343" y="220"/>
    </contour>
  </outline>
</glyph>
<glyph name="h" format="2">
  <advance width="812"/>
  <unicode hex="0068"/>
  <anchor x="405" y="0" name="bottom"/>
  <anchor x="405" y="400" name="center"/>
  <anchor x="405" y="800" name="top"/>
  <outline>
    <contour>
      <point x="327" y="305" type="line"/>
      <point x="341" y="352"/>
      <point x="377" y="371"/>
      <point x="411" y="371" type="curve" smooth="yes"/>
      <point x="447" y="371"/>
      <point x="470" y="350"/>
      <point x="470" y="301" type="curve" smooth="yes"/>
      <point x="470" y="0" type="line"/>
      <point x="770" y="0" type="line"/>
      <point x="770" y="357" type="line" smooth="yes"/>
      <point x="770" y="512"/>
      <point x="699" y="587"/>
      <point x="568" y="587" type="curve" smooth="yes"/>
      <point x="448" y="587"/>
      <point x="345" y="526"/>
      <point x="310" y="379" type="curve"/>
    </contour>
    <contour>
      <point x="35" y="0" type="line"/>
      <point x="335" y="0" type="line"/>
      <point x="335" y="404" type="line"/>
      <point x="315" y="404" type="line"/>
      <point x="315" y="800" type="line"/>
      <point x="35" y="800" type="line"/>
    </contour>
  </outline>
</glyph>
<glyph name="k" format="2">
  <advance width="904"/>
  <unicode hex="006B"/>
  <anchor x="453" y="0" name="bottom"/>
  <anchor x="453" y="800" name="top"/>
  <outline>
    <contour>
      <point x="287" y="296" type="line"/>
      <point x="549" y="0" type="line"/>
      <point x="892" y="0" type="line"/>
      <point x="531" y="381" type="line"/>
    </contour>
    <contour>
      <point x="287" y="107" type="line"/>
      <point x="870" y="570" type="line"/>
      <point x="522" y="570" type="line"/>
      <point x="166" y="278" type="line"/>
    </contour>
    <contour>
      <point x="35" y="800" type="line"/>
      <point x="35" y="0" type="line"/>
      <point x="335" y="0" type="line"/>
      <point x="335" y="800" type="line"/>
    </contour>
  </outline>
</glyph>
<glyph name="l" format="2">
  <advance width="382"/>
  <unicode hex="006C"/>
  <anchor x="191" y="0" name="bottom"/>
  <anchor x="191" y="400" name="center"/>
  <anchor x="191" y="800" name="top"/>
  <anchor x="371" y="800" name="topright"/>
  <outline>
    <contour>
      <point x="41" y="800" type="line"/>
      <point x="41" y="0" type="line"/>
      <point x="341" y="0" type="line"/>
      <point x="341" y="800" type="line"/>
    </contour>
  </outline>
</glyph>
<glyph name="m" format="2">
  <advance width="1237"/>
  <unicode hex="006D"/>
  <anchor x="618" y="0" name="bottom"/>
  <anchor x="618" y="570" name="top"/>
  <outline>
    <contour>
      <point x="322" y="305" type="line"/>
      <point x="336" y="352"/>
      <point x="372" y="371"/>
      <point x="406" y="371" type="curve" smooth="yes"/>
      <point x="442" y="371"/>
      <point x="470" y="350"/>
      <point x="470" y="301" type="curve" smooth="yes"/>
      <point x="470" y="0" type="line"/>
      <point x="760" y="0" type="line"/>
      <point x="760" y="357" type="line" smooth="yes"/>
      <point x="760" y="512"/>
      <point x="694" y="587"/>
      <point x="563" y="587" type="curve" smooth="yes"/>
      <point x="443" y="587"/>
      <point x="340" y="526"/>
      <point x="305" y="379" type="curve"/>
    </contour>
    <contour>
      <point x="35" y="0" type="line"/>
      <point x="335" y="0" type="line"/>
      <point x="335" y="404" type="line"/>
      <point x="315" y="404" type="line"/>
      <point x="315" y="570" type="line"/>
      <point x="35" y="570" type="line"/>
    </contour>
    <contour>
      <point x="752" y="313" type="line"/>
      <point x="766" y="353"/>
      <point x="802" y="371"/>
      <point x="836" y="371" type="curve" smooth="yes"/>
      <point x="872" y="371"/>
      <point x="895" y="350"/>
      <point x="895" y="301" type="curve" smooth="yes"/>
      <point x="895" y="0" type="line"/>
      <point x="1195" y="0" type="line"/>
      <point x="1195" y="357" type="line" smooth="yes"/>
      <point x="1195" y="512"/>
      <point x="1124" y="587"/>
      <point x="993" y="587" type="curve" smooth="yes"/>
      <point x="873" y="587"/>
      <point x="770" y="526"/>
      <point x="735" y="379" type="curve"/>
    </contour>
  </outline>
</glyph>
<glyph name="n" format="2">
  <advance width="812"/>
  <unicode hex="006E"/>
  <anchor x="395" y="0" name="bottom"/>
  <anchor x="395" y="570" name="top"/>
  <outline>
    <contour>
      <point x="327" y="305" type="line"/>
      <point x="341" y="352"/>
      <point x="377" y="371"/>
      <point x="411" y="371" type="curve" smooth="yes"/>
      <point x="447" y="371"/>
      <point x="470" y="350"/>
      <point x="470" y="301" type="curve" smooth="yes"/>
      <point x="470" y="0" type="line"/>
      <point x="770" y="0" type="line"/>
      <point x="770" y="357" type="line" smooth="yes"/>
      <point x="770" y="512"/>
      <point x="699" y="587"/>
      <point x="568" y="587" type="curve" smooth="yes"/>
      <point x="448" y="587"/>
      <point x="345" y="526"/>
      <point x="310" y="379" type="curve"/>
    </contour>
    <contour>
      <point x="35" y="0" type="line"/>
      <point x="335" y="0" type="line"/>
      <point x="335" y="404" type="line"/>
      <point x="315" y="404" type="line"/>
      <point x="315" y="570" type="line"/>
      <point x="35" y="570" type="line"/>
    </contour>
  </outline>
</glyph>
<glyph name="o" format="2">
  <advance width="827"/>
  <unicode hex="006F"/>
  <note>
t
</note>
  <anchor x="414" y="0" name="bottom"/>
  <anchor x="414" y="285" name="center"/>
  <anchor x="742" y="10" name="ogonek"/>
  <anchor x="414" y="570" name="top"/>
  <anchor x="804" y="570" name="topright"/>
  <outline>
    <contour>
      <point x="414" y="-24" type="curve" smooth="yes"/>
      <point x="663" y="-24"/>
      <point x="804" y="88"/>
      <point x="804" y="282" type="curve" smooth="yes"/>
      <point x="804" y="478"/>
      <point x="663" y="595"/>
      <point x="414" y="595" type="curve" smooth="yes"/>
      <point x="164" y="595"/>
      <point x="23" y="478"/>
      <point x="23" y="282" type="curve" smooth="yes"/>
      <point x="23" y="88"/>
      <point x="164" y="-24"/>
    </contour>
    <contour>
      <point x="414" y="162" type="curve" smooth="yes"/>
      <point x="352" y="162"/>
      <point x="323" y="204"/>
      <point x="323" y="284" type="curve" smooth="yes"/>
      <point x="323" y="366"/>
      <point x="352" y="410"/>
      <point x="414" y="410" type="curve" smooth="yes"/>
      <point x="475" y="410"/>
      <point x="504" y="366"/>
      <point x="504" y="284" type="curve" smooth="yes"/>
      <point x="504" y="204"/>
      <point x="475" y="162"/>
    </contour>
  </outline>
</glyph>
<glyph name="p" format="2">
  <advance width="867"/>
  <unicode hex="0070"/>
  <anchor x="435" y="0" name="bottom"/>
  <anchor x="435" y="570" name="top"/>
  <outline>
    <contour>
      <point x="572" y="-24" type="curve" smooth="yes"/>
      <point x="745" y="-24"/>
      <point x="844" y="110"/>
      <point x="844" y="289" type="curve" smooth="yes"/>
      <point x="844" y="466"/>
      <point x="736" y="593"/>
      <point x="566" y="593" type="curve" smooth="yes"/>
      <point x="460" y="593"/>
      <point x="388" y="548"/>
      <point x="335" y="458" type="curve"/>
      <point x="335" y="570" type="line"/>
      <point x="35" y="570" type="line"/>
      <point x="35" y="-230" type="line"/>
      <point x="335" y="-230" type="line"/>
      <point x="335" y="113" type="line"/>
      <point x="381" y="21"/>
      <point x="466" y="-24"/>
    </contour>
    <contour>
      <point x="441" y="147" type="curve" smooth="yes"/>
      <point x="385" y="147"/>
      <point x="357" y="193"/>
      <point x="357" y="276" type="curve" smooth="yes"/>
      <point x="357" y="284" type="line" smooth="yes"/>
      <point x="357" y="363"/>
      <point x="391" y="407"/>
      <point x="441" y="407" type="curve" smooth="yes"/>
      <point x="497" y="408"/>
      <point x="524" y="362"/>
      <point x="524" y="278" type="curve" smooth="yes"/>
      <point x="524" y="193"/>
      <point x="497" y="147"/>
    </contour>
  </outline>
</glyph>
<glyph name="q" format="2">
  <advance width="864"/>
  <unicode hex="0071"/>
  <anchor x="431" y="0" name="bottom"/>
  <anchor x="431" y="570" name="top"/>
  <outline>
    <contour>
      <point x="288" y="-24" type="curve" smooth="yes"/>
      <point x="383" y="-24"/>
      <point x="475" y="18"/>
      <point x="528" y="139" type="curve"/>
      <point x="528" y="-230" type="line"/>
      <point x="828" y="-230" type="line"/>
      <point x="828" y="570" type="line"/>
      <point x="528" y="570" type="line"/>
      <point x="528" y="449" type="line"/>
      <point x="472" y="547"/>
      <point x="377" y="594"/>
      <point x="283" y="594" type="curve" smooth="yes"/>
      <point x="126" y="594"/>
      <point x="23" y="472"/>
      <point x="23" y="293" type="curve" smooth="yes"/>
      <point x="23" y="100"/>
      <point x="130" y="-24"/>
    </contour>
    <contour>
      <point x="421" y="162" type="curve" smooth="yes"/>
      <point x="365" y="161"/>
      <point x="338" y="207"/>
      <point x="338" y="291" type="curve" smooth="yes"/>
      <point x="338" y="376"/>
      <point x="365" y="422"/>
      <point x="421" y="422" type="curve" smooth="yes"/>
      <point x="477" y="422"/>
      <point x="505" y="376"/>
      <point x="505" y="293" type="curve" smooth="yes"/>
      <point x="505" y="285" type="line" smooth="yes"/>
      <point x="505" y="206"/>
      <point x="471" y="162"/>
    </contour>
  </outline>
</glyph>
<glyph name="r" format="2">
  <advance width="612"/>
  <unicode hex="0072"/>
  <anchor x="307" y="0" name="bottom"/>
  <anchor x="307" y="570" name="top"/>
  <outline>
    <contour>
      <point x="35" y="0" type="line"/>
      <point x="335" y="0" type="line"/>
      <point x="335" y="318" type="line"/>
      <point x="389" y="337"/>
      <point x="427" y="344"/>
      <point x="472" y="344" type="curve" smooth="yes"/>
      <point x="509" y="344"/>
      <point x="538" y="339"/>
      <point x="588" y="325" type="curve"/>
      <point x="588" y="579" type="line"/>
      <point x="573" y="581"/>
      <point x="559" y="582"/>
      <point x="545" y="582" type="curve" smooth="yes"/>
      <point x="446" y="582"/>
      <point x="376" y="531"/>
      <point x="331" y="407" type="curve"/>
      <point x="331" y="570" type="line"/>
      <point x="35" y="570" type="line"/>
    </contour>
  </outline>
</glyph>
<glyph name="s" format="2">
  <advance width="757"/>
  <unicode hex="0073"/>
  <anchor x="376" y="0" name="bottom"/>
  <anchor x="376" y="570" name="top"/>
  <outline>
    <contour>
      <point x="35" y="394" type="curve" smooth="yes"/>
      <point x="35" y="134"/>
      <point x="442" y="267"/>
      <point x="442" y="175" type="curve" smooth="yes"/>
      <point x="442" y="143"/>
      <point x="395" y="135"/>
      <point x="339" y="135" type="curve" smooth="yes"/>
      <point x="244" y="135"/>
      <point x="139" y="157"/>
      <point x="42" y="198" type="curve"/>
      <point x="51" y="29" type="line"/>
      <point x="127" y="-6"/>
      <point x="253" y="-28"/>
      <point x="378" y="-28" type="curve" smooth="yes"/>
      <point x="622" y="-28"/>
      <point x="733" y="44"/>
      <point x="733" y="178" type="curve" smooth="yes"/>
      <point x="733" y="438"/>
      <point x="308" y="331"/>
      <point x="308" y="407" type="curve" smooth="yes"/>
      <point x="308" y="429"/>
      <point x="341" y="437"/>
      <point x="416" y="437" type="curve" smooth="yes"/>
      <point x="523" y="437"/>
      <point x="628" y="420"/>
      <point x="706" y="392" type="curve"/>
      <point x="694" y="553" type="line"/>
      <point x="626" y="575"/>
      <point x="533" y="600"/>
      <point x="391" y="600" type="curve" smooth="yes"/>
      <point x="167" y="600"/>
      <point x="35" y="548"/>
    </contour>
  </outline>
</glyph>
<glyph name="t" format="2">
  <advance width="667"/>
  <unicode hex="0074"/>
  <anchor x="365" y="0" name="bottom"/>
  <anchor x="332" y="280" name="center"/>
  <anchor x="352" y="570" name="top"/>
  <anchor x="431" y="780" name="topright"/>
  <outline>
    <contour>
      <point x="104" y="220" type="line" smooth="yes"/>
      <point x="104" y="51"/>
      <point x="237" y="-24"/>
      <point x="421" y="-24" type="curve" smooth="yes"/>
      <point x="489" y="-24"/>
      <point x="566" y="-14"/>
      <point x="622" y="5" type="curve"/>
      <point x="649" y="180" type="line"/>
      <point x="622" y="174"/>
      <point x="592" y="170"/>
      <point x="558" y="170" type="curve" smooth="yes"/>
      <point x="458" y="170"/>
      <point x="394" y="208"/>
      <point x="394" y="310" type="curve" smooth="yes"/>
      <point x="394" y="770" type="line"/>
      <point x="109" y="668" type="line"/>
      <point x="109" y="528" type="line"/>
      <point x="104" y="513" type="line"/>
    </contour>
    <contour>
      <point x="23" y="570" type="line"/>
      <point x="23" y="380" type="line"/>
      <point x="620" y="380" type="line"/>
      <point x="620" y="570" type="line"/>
    </contour>
  </outline>
</glyph>
<glyph name="u" format="2">
  <advance width="804"/>
  <unicode hex="0075"/>
  <anchor x="401" y="0" name="bottom"/>
  <anchor x="715" y="10" name="ogonek"/>
  <anchor x="401" y="570" name="top"/>
  <anchor x="777" y="570" name="topright"/>
  <outline>
    <contour>
      <point x="478" y="265" type="line"/>
      <point x="464" y="213"/>
      <point x="428" y="192"/>
      <point x="393" y="192" type="curve" smooth="yes"/>
      <point x="358" y="192"/>
      <point x="335" y="213"/>
      <point x="335" y="262" type="curve" smooth="yes"/>
      <point x="335" y="570" type="line"/>
      <point x="35" y="570" type="line"/>
      <point x="35" y="206" type="line" smooth="yes"/>
      <point x="35" y="51"/>
      <point x="106" y="-24"/>
      <point x="237" y="-24" type="curve" smooth="yes"/>
      <point x="357" y="-24"/>
      <point x="460" y="39"/>
      <point x="495" y="191" type="curve"/>
    </contour>
    <contour>
      <point x="762" y="570" type="line"/>
      <point x="462" y="570" type="line"/>
      <point x="462" y="166" type="line"/>
      <point x="482" y="166" type="line"/>
      <point x="482" y="0" type="line"/>
      <point x="762" y="0" type="line"/>
    </contour>
  </outline>
</glyph>
<glyph name="v" format="2">
  <advance width="895"/>
  <unicode hex="0076"/>
  <anchor x="386" y="0" name="bottom"/>
  <anchor x="386" y="570" name="top"/>
  <outline>
    <contour>
      <point x="6" y="570" type="line"/>
      <point x="258" y="0" type="line"/>
      <point x="639" y="0" type="line"/>
      <point x="891" y="569" type="line"/>
      <point x="576" y="570" type="line"/>
      <point x="452" y="213" type="line"/>
      <point x="327" y="570" type="line"/>
    </contour>
  </outline>
</glyph>
<glyph name="w" format="2">
  <advance width="1197"/>
  <unicode hex="0077"/>
  <anchor x="591" y="0" name="bottom"/>
  <anchor x="591" y="570" name="top"/>
  <outline>
    <contour>
      <point x="0" y="570" type="line"/>
      <point x="186" y="0" type="line"/>
      <point x="493" y="0" type="line"/>
      <point x="590" y="345" type="line"/>
      <point x="691" y="0" type="line"/>
      <point x="1011" y="0" type="line"/>
      <point x="1197" y="570" type="line"/>
      <point x="949" y="570" type="line"/>
      <point x="869" y="216" type="line"/>
      <point x="784" y="570" type="line"/>
      <point x="426" y="570" type="line"/>
      <point x="344" y="226" type="line"/>
      <point x="271" y="570" type="line"/>
    </contour>
  </outline>
</glyph>
<glyph name="x" format="2">
  <advance width="850"/>
  <unicode hex="0078"/>
  <anchor x="413" y="0" name="bottom"/>
  <anchor x="413" y="570" name="top"/>
  <outline>
    <contour>
      <point x="582" y="265" type="line"/>
      <point x="840" y="570" type="line"/>
      <point x="529" y="570" type="line"/>
      <point x="365" y="361" type="line"/>
    </contour>
    <contour>
      <point x="500" y="0" type="line"/>
      <point x="850" y="0" type="line"/>
      <point x="579" y="283" type="line"/>
      <point x="350" y="570" type="line"/>
      <point x="10" y="570" type="line"/>
      <point x="283" y="275" type="line"/>
    </contour>
    <contour>
      <point x="0" y="0" type="line"/>
      <point x="311" y="0" type="line"/>
      <point x="480" y="211" type="line"/>
      <point x="263" y="308" type="line"/>
    </contour>
  </outline>
</glyph>
<glyph name="y" format="2">
  <advance width="895"/>
  <unicode hex="0079"/>
  <anchor x="449" y="0" name="bottom"/>
  <anchor x="449" y="570" name="top"/>
  <outline>
    <contour>
      <point x="6" y="570" type="line"/>
      <point x="279" y="20" type="line"/>
      <point x="263" y="-27"/>
      <point x="215" y="-50"/>
      <point x="132" y="-50" type="curve" smooth="yes"/>
      <point x="87" y="-50"/>
      <point x="47" y="-43"/>
      <point x="12" y="-36" type="curve"/>
      <point x="18" y="-231" type="line"/>
      <point x="70" y="-244"/>
      <point x="122" y="-255"/>
      <point x="197" y="-255" type="curve" smooth="yes"/>
      <point x="405" y="-255"/>
      <point x="556" y="-168"/>
      <point x="642" y="21" type="curve" smooth="yes"/>
      <point x="891" y="570" type="line"/>
      <point x="578" y="570" type="line"/>
      <point x="423" y="82" type="line"/>
      <point x="521" y="84" type="line"/>
      <point x="332" y="570" type="line"/>
    </contour>
  </outline>
</glyph>
<glyph name="z" format="2">
  <advance width="728"/>
  <unicode hex="007A"/>
  <anchor x="305" y="0" name="bottom"/>
  <anchor x="305" y="285" name="center"/>
  <anchor x="365" y="570" name="top"/>
  <outline>
    <contour>
      <point x="35" y="175" type="line"/>
      <point x="36" y="175" type="line"/>
      <point x="36" y="0" type="line"/>
      <point x="704" y="0" type="line"/>
      <point x="704" y="185" type="line"/>
      <point x="135" y="185" type="line"/>
      <point x="305" y="134" type="line"/>
      <point x="689" y="395" type="line"/>
      <point x="689" y="570" type="line"/>
      <point x="47" y="570" type="line"/>
      <point x="48" y="395" type="line"/>
      <point x="499" y="395" type="line"/>
      <point x="467" y="476" type="line"/>
    </contour>
  </outline>
</glyph>
<glyph name="braceleft" format="2">
  <advance width="686"/>
  <unicode hex="007B"/>
  <outline>
    <contour>
      <point x="192" y="519" type="curve" smooth="yes"/>
      <point x="192" y="410"/>
      <point x="158" y="359"/>
      <point x="75" y="346" type="curve"/>
      <point x="75" y="223" type="line"/>
      <point x="158" y="211"/>
      <point x="192" y="161"/>
      <point x="192" y="52" type="curve" smooth="yes"/>
      <point x="192" y="-134"/>
      <point x="308" y="-233"/>
      <point x="650" y="-235" type="curve"/>
      <point x="650" y="-26" type="line"/>
      <point x="526" y="-24"/>
      <point x="491" y="30"/>
      <point x="491" y="112" type="curve" smooth="yes"/>
      <point x="491" y="187"/>
      <point x="444" y="245"/>
      <point x="304" y="311" type="curve"/>
      <point x="304" y="256" type="line"/>
      <point x="444" y="323"/>
      <point x="491" y="385"/>
      <point x="491" y="467" type="curve" smooth="yes"/>
      <point x="491" y="549"/>
      <point x="526" y="608"/>
      <point x="650" y="610" type="curve"/>
      <point x="650" y="810" type="line"/>
      <point x="308" y="808"/>
      <point x="192" y="730"/>
    </contour>
  </outline>
</glyph>
<glyph name="bar" format="2">
  <advance width="653"/>
  <unicode hex="007C"/>
  <outline>
    <contour>
      <point x="208" y="-215" type="line"/>
      <point x="468" y="-215" type="line"/>
      <point x="468" y="835" type="line"/>
      <point x="208" y="835" type="line"/>
    </contour>
  </outline>
</glyph>
<glyph name="asciitilde" format="2">
  <advance width="694"/>
  <unicode hex="007E"/>
  <anchor x="346" y="525" name="_top"/>
  <anchor x="346" y="824" name="top"/>
  <outline>
    <contour>
      <point x="12" y="275" type="curve"/>
      <point x="177" y="268" type="line"/>
      <point x="179" y="317"/>
      <point x="216" y="336"/>
      <point x="257" y="336" type="curve" smooth="yes"/>
      <point x="340" y="336"/>
      <point x="334" y="256"/>
      <point x="467" y="255" type="curve" smooth="yes"/>
      <point x="609" y="252"/>
      <point x="680" y="341"/>
      <point x="680" y="503" type="curve"/>
      <point x="515" y="511" type="line"/>
      <point x="512" y="463"/>
      <point x="476" y="444"/>
      <point x="439" y="444" type="curve" smooth="yes"/>
      <point x="363" y="444"/>
      <point x="366" y="524"/>
      <point x="228" y="524" type="curve" smooth="yes"/>
      <point x="87" y="524"/>
      <point x="12" y="435"/>
    </contour>
  </outline>
</glyph>
<glyph name="cent" format="2">
  <advance width="737"/>
  <unicode hex="00A2"/>
  <outline>
    <contour>
      <point x="477" y="796" type="line"/>
      <point x="370" y="-31" type="line"/>
      <point x="465" y="-31" type="line"/>
      <point x="572" y="796" type="line"/>
    </contour>
    <component base="c" yOffset="108"/>
  </outline>
</glyph>
<glyph name="sterling" format="2">
  <advance width="895"/>
  <unicode hex="00A3"/>
  <outline>
    <contour>
      <point x="141" y="539" type="curve" smooth="yes"/>
      <point x="141" y="372"/>
      <point x="289" y="242"/>
      <point x="61" y="180" type="curve"/>
      <point x="61" y="0" type="line"/>
      <point x="871" y="0" type="line"/>
      <point x="870" y="215" type="line"/>
      <point x="267" y="215" type="line"/>
      <point x="191" y="92" type="line"/>
      <point x="547" y="235"/>
      <point x="424" y="331"/>
      <point x="424" y="450" type="curve" smooth="yes"/>
      <point x="424" y="547"/>
      <point x="503" y="570"/>
      <point x="627" y="570" type="curve" smooth="yes"/>
      <point x="704" y="570"/>
      <point x="759" y="562"/>
      <point x="827" y="540" type="curve"/>
      <point x="827" y="741" type="line"/>
      <point x="752" y="767"/>
      <point x="682" y="780"/>
      <point x="561" y="780" type="curve" smooth="yes"/>
      <point x="254" y="780"/>
      <point x="141" y="686"/>
    </contour>
    <contour>
      <point x="58" y="479" type="line"/>
      <point x="59" y="304" type="line"/>
      <point x="756" y="304" type="line"/>
      <point x="755" y="479" type="line"/>
    </contour>
  </outline>
</glyph>
<glyph name="currency" format="2">
  <advance width="959"/>
  <unicode hex="00A4"/>
  <outline>
    <contour>
      <point x="489" y="15" type="curve" smooth="yes"/>
      <point x="706" y="15"/>
      <point x="844" y="142"/>
      <point x="844" y="332" type="curve" smooth="yes"/>
      <point x="844" y="524"/>
      <point x="706" y="650"/>
      <point x="489" y="650" type="curve" smooth="yes"/>
      <point x="274" y="650"/>
      <point x="134" y="524"/>
      <point x="134" y="332" type="curve" smooth="yes"/>
      <point x="134" y="142"/>
      <point x="273" y="15"/>
    </contour>
    <contour>
      <point x="489" y="214" type="curve" smooth="yes"/>
      <point x="417" y="214"/>
      <point x="368" y="260"/>
      <point x="368" y="332" type="curve" smooth="yes"/>
      <point x="368" y="406"/>
      <point x="417" y="452"/>
      <point x="489" y="452" type="curve" smooth="yes"/>
      <point x="561" y="452"/>
      <point x="610" y="406"/>
      <point x="610" y="332" type="curve" smooth="yes"/>
      <point x="610" y="260"/>
      <point x="561" y="214"/>
    </contour>
    <contour>
      <point x="489" y="482" type="line"/>
      <point x="621" y="379" type="line"/>
      <point x="922" y="694" type="line"/>
      <point x="787" y="808" type="line"/>
    </contour>
    <contour>
      <point x="444" y="158" type="line"/>
      <point x="313" y="262" type="line"/>
      <point x="42" y="-22" type="line"/>
      <point x="177" y="-129" type="line"/>
    </contour>
    <contour>
      <point x="468" y="482" type="line"/>
      <point x="170" y="808" type="line"/>
      <point x="35" y="694" type="line"/>
      <point x="336" y="379" type="line"/>
    </contour>
    <contour>
      <point x="513" y="158" type="line"/>
      <point x="781" y="-129" type="line"/>
      <point x="915" y="-22" type="line"/>
      <point x="644" y="262" type="line"/>
    </contour>
  </outline>
</glyph>
<glyph name="yen" format="2">
  <advance width="1092"/>
  <unicode hex="00A5"/>
  <outline>
    <contour>
      <point x="406" y="750" type="line"/>
      <point x="35" y="750" type="line"/>
      <point x="366" y="264" type="line"/>
      <point x="366" y="0" type="line"/>
      <point x="726" y="0" type="line"/>
      <point x="726" y="264" type="line"/>
      <point x="1055" y="750" type="line"/>
      <point x="705" y="750" type="line"/>
      <point x="557" y="489" type="line"/>
    </contour>
    <contour>
      <point x="143" y="394" type="line"/>
      <point x="143" y="274" type="line"/>
      <point x="947" y="274" type="line"/>
      <point x="947" y="394" type="line"/>
    </contour>
    <contour>
      <point x="143" y="224" type="line"/>
      <point x="143" y="104" type="line"/>
      <point x="947" y="104" type="line"/>
      <point x="947" y="224" type="line"/>
    </contour>
  </outline>
</glyph>
<glyph name="section" format="2">
  <advance width="989"/>
  <unicode hex="00A7"/>
  <outline>
    <contour>
      <point x="59" y="679" type="curve" smooth="yes"/>
      <point x="59" y="342"/>
      <point x="643" y="481"/>
      <point x="643" y="314" type="curve" smooth="yes"/>
      <point x="643" y="284"/>
      <point x="625" y="253"/>
      <point x="556" y="267" type="curve"/>
      <point x="556" y="207" type="line"/>
      <point x="676" y="146"/>
      <point x="952" y="193"/>
      <point x="952" y="386" type="curve" smooth="yes"/>
      <point x="952" y="642"/>
      <point x="395" y="572"/>
      <point x="395" y="675" type="curve" smooth="yes"/>
      <point x="395" y="701"/>
      <point x="431" y="717"/>
      <point x="539" y="717" type="curve" smooth="yes"/>
      <point x="654" y="717"/>
      <point x="779" y="700"/>
      <point x="905" y="660" type="curve"/>
      <point x="896" y="878" type="line"/>
      <point x="793" y="901"/>
      <point x="667" y="923"/>
      <point x="496" y="923" type="curve" smooth="yes"/>
      <point x="210" y="923"/>
      <point x="59" y="848"/>
    </contour>
    <contour>
      <point x="59" y="306" type="curve" smooth="yes"/>
      <point x="59" y="34"/>
      <point x="613" y="118"/>
      <point x="613" y="16" type="curve" smooth="yes"/>
      <point x="613" y="-11"/>
      <point x="575" y="-28"/>
      <point x="466" y="-28" type="curve" smooth="yes"/>
      <point x="312" y="-28"/>
      <point x="163" y="6"/>
      <point x="58" y="64" type="curve"/>
      <point x="68" y="-164" type="line"/>
      <point x="201" y="-214"/>
      <point x="346" y="-246"/>
      <point x="520" y="-246" type="curve" smooth="yes"/>
      <point x="795" y="-246"/>
      <point x="952" y="-156"/>
      <point x="952" y="23" type="curve" smooth="yes"/>
      <point x="952" y="359"/>
      <point x="365" y="247"/>
      <point x="365" y="377" type="curve" smooth="yes"/>
      <point x="365" y="404"/>
      <point x="388" y="416"/>
      <point x="419" y="428" type="curve"/>
      <point x="449" y="449" type="line"/>
      <point x="300" y="509"/>
      <point x="59" y="475"/>
    </contour>
  </outline>
</glyph>
<glyph name="copyright" format="2">
  <advance width="1137"/>
  <unicode hex="00A9"/>
  <outline>
    <contour>
      <point x="569" y="-180" type="curve" smooth="yes"/>
      <point x="881" y="-180"/>
      <point x="1114" y="54"/>
      <point x="1114" y="340" type="curve" smooth="yes"/>
      <point x="1114" y="626"/>
      <point x="881" y="859"/>
      <point x="569" y="859" type="curve" smooth="yes"/>
      <point x="257" y="859"/>
      <point x="23" y="626"/>
      <point x="23" y="340" type="curve" smooth="yes"/>
      <point x="23" y="54"/>
      <point x="257" y="-180"/>
    </contour>
    <contour>
      <point x="569" y="-9" type="curve" smooth="yes"/>
      <point x="347" y="-9"/>
      <point x="205" y="140"/>
      <point x="205" y="340" type="curve" smooth="yes"/>
      <point x="205" y="539"/>
      <point x="347" y="688"/>
      <point x="569" y="688" type="curve" smooth="yes"/>
      <point x="790" y="688"/>
      <point x="932" y="539"/>
      <point x="932" y="340" type="curve" smooth="yes"/>
      <point x="932" y="140"/>
      <point x="790" y="-9"/>
    </contour>
    <contour>
      <point x="795" y="402" type="curve"/>
      <point x="778" y="544" type="line"/>
      <point x="732" y="559"/>
      <point x="674" y="570"/>
      <point x="602" y="570" type="curve" smooth="yes"/>
      <point x="405" y="570"/>
      <point x="299" y="491"/>
      <point x="299" y="338" type="curve" smooth="yes"/>
      <point x="299" y="185"/>
      <point x="407" y="109"/>
      <point x="602" y="109" type="curve" smooth="yes"/>
      <point x="682" y="109"/>
      <point x="741" y="122"/>
      <point x="787" y="143" type="curve"/>
      <point x="804" y="288" type="line"/>
      <point x="738" y="269"/>
      <point x="683" y="265"/>
      <point x="647" y="265" type="curve" smooth="yes"/>
      <point x="564" y="265"/>
      <point x="530" y="288"/>
      <point x="530" y="343" type="curve" smooth="yes"/>
      <point x="530" y="398"/>
      <point x="562" y="421"/>
      <point x="643" y="421" type="curve" smooth="yes"/>
      <point x="693" y="421"/>
      <point x="746" y="415"/>
    </contour>
  </outline>
</glyph>
<glyph name="ordfeminine" format="2">
  <advance width="545"/>
  <unicode hex="00AA"/>
  <outline>
    <contour>
      <point x="6" y="471" type="curve" smooth="yes"/>
      <point x="6" y="405"/>
      <point x="57" y="362"/>
      <point x="136" y="362" type="curve" smooth="yes"/>
      <point x="209" y="362"/>
      <point x="274" y="397"/>
      <point x="319" y="466" type="curve"/>
      <point x="319" y="381" type="line"/>
      <point x="524" y="381" type="line"/>
      <point x="524" y="587" type="line" smooth="yes"/>
      <point x="524" y="725"/>
      <point x="430" y="800"/>
      <point x="259" y="800" type="curve" smooth="yes"/>
      <point x="181" y="800"/>
      <point x="89" y="786"/>
      <point x="38" y="768" type="curve"/>
      <point x="38" y="638" type="line"/>
      <point x="111" y="658"/>
      <point x="160" y="663"/>
      <point x="206" y="663" type="curve" smooth="yes"/>
      <point x="279" y="663"/>
      <point x="310" y="644"/>
      <point x="311" y="608" type="curve" smooth="yes"/>
      <point x="311" y="606" type="line"/>
      <point x="301" y="606" type="line" smooth="yes"/>
      <point x="91" y="606"/>
      <point x="6" y="557"/>
    </contour>
    <contour>
      <point x="200" y="500" type="curve" smooth="yes"/>
      <point x="200" y="529"/>
      <point x="228" y="542"/>
      <point x="304" y="542" type="curve" smooth="yes"/>
      <point x="311" y="542" type="line"/>
      <point x="311" y="513" type="line"/>
      <point x="273" y="477"/>
      <point x="249" y="471"/>
      <point x="233" y="471" type="curve" smooth="yes"/>
      <point x="214" y="471"/>
      <point x="200" y="479"/>
    </contour>
  </outline>
</glyph>
<glyph name="guillemetleft" format="2">
  <advance width="1123"/>
  <unicode hex="00AB"/>
  <outline>
    <contour>
      <point x="58" y="314" type="line"/>
      <point x="324" y="28" type="line"/>
      <point x="653" y="28" type="line"/>
      <point x="389" y="314" type="line"/>
      <point x="652" y="600" type="line"/>
      <point x="324" y="600" type="line"/>
    </contour>
    <contour>
      <point x="508" y="314" type="line"/>
      <point x="762" y="37" type="line"/>
      <point x="1086" y="37" type="line"/>
      <point x="830" y="314" type="line"/>
      <point x="1085" y="591" type="line"/>
      <point x="762" y="591" type="line"/>
    </contour>
  </outline>
</glyph>
<glyph name="logicalnot" format="2">
  <advance width="696"/>
  <unicode hex="00AC"/>
  <outline>
    <contour>
      <point x="659" y="271" type="line"/>
      <point x="659" y="486" type="line"/>
      <point x="35" y="486" type="line"/>
      <point x="35" y="271" type="line"/>
    </contour>
    <contour>
      <point x="424" y="459" type="line"/>
      <point x="424" y="29" type="line"/>
      <point x="659" y="29" type="line"/>
      <point x="659" y="459" type="line"/>
    </contour>
  </outline>
</glyph>
<glyph name="registered" format="2">
  <advance width="803"/>
  <unicode hex="00AE"/>
  <outline>
    <contour>
      <point x="239" y="403" type="line"/>
      <point x="364" y="403" type="line"/>
      <point x="364" y="515" type="line"/>
      <point x="342" y="515" type="line"/>
      <point x="431" y="403" type="line"/>
      <point x="588" y="403" type="line"/>
      <point x="486" y="488" type="line"/>
      <point x="542" y="489"/>
      <point x="588" y="509"/>
      <point x="588" y="574" type="curve" smooth="yes"/>
      <point x="588" y="631"/>
      <point x="554" y="665"/>
      <point x="508" y="665" type="curve" smooth="yes"/>
      <point x="239" y="665" type="line"/>
    </contour>
    <contour>
      <point x="364" y="547" type="line"/>
      <point x="364" y="595" type="line"/>
      <point x="422" y="595" type="line" smooth="yes"/>
      <point x="445" y="595"/>
      <point x="462" y="588"/>
      <point x="462" y="570" type="curve" smooth="yes"/>
      <point x="462" y="552"/>
      <point x="444" y="547"/>
      <point x="426" y="547" type="curve" smooth="yes"/>
    </contour>
    <contour>
      <point x="405" y="178" type="curve" smooth="yes"/>
      <point x="606" y="178"/>
      <point x="765" y="337"/>
      <point x="765" y="529" type="curve" smooth="yes"/>
      <point x="765" y="721"/>
      <point x="605" y="880"/>
      <point x="405" y="880" type="curve" smooth="yes"/>
      <point x="205" y="880"/>
      <point x="46" y="721"/>
      <point x="46" y="529" type="curve" smooth="yes"/>
      <point x="46" y="337"/>
      <point x="205" y="178"/>
    </contour>
    <contour>
      <point x="405" y="286" type="curve" smooth="yes"/>
      <point x="265" y="286"/>
      <point x="166" y="388"/>
      <point x="166" y="529" type="curve" smooth="yes"/>
      <point x="166" y="668"/>
      <point x="265" y="770"/>
      <point x="405" y="770" type="curve" smooth="yes"/>
      <point x="544" y="770"/>
      <point x="642" y="667"/>
      <point x="642" y="529" type="curve" smooth="yes"/>
      <point x="642" y="389"/>
      <point x="544" y="286"/>
    </contour>
  </outline>
</glyph>
<glyph name="degree" format="2">
  <advance width="567"/>
  <unicode hex="00B0"/>
  <outline>
    <contour>
      <point x="284" y="333" type="curve" smooth="yes"/>
      <point x="418" y="333"/>
      <point x="521" y="436"/>
      <point x="521" y="564" type="curve" smooth="yes"/>
      <point x="521" y="689"/>
      <point x="418" y="790"/>
      <point x="284" y="790" type="curve" smooth="yes"/>
      <point x="148" y="790"/>
      <point x="46" y="689"/>
      <point x="46" y="564" type="curve" smooth="yes"/>
      <point x="46" y="436"/>
      <point x="148" y="333"/>
    </contour>
    <contour>
      <point x="284" y="481" type="curve" smooth="yes"/>
      <point x="233" y="481"/>
      <point x="202" y="514"/>
      <point x="202" y="562" type="curve" smooth="yes"/>
      <point x="202" y="610"/>
      <point x="233" y="643"/>
      <point x="284" y="642" type="curve" smooth="yes"/>
      <point x="334" y="643"/>
      <point x="364" y="610"/>
      <point x="364" y="562" type="curve" smooth="yes"/>
      <point x="364" y="514"/>
      <point x="334" y="481"/>
    </contour>
  </outline>
</glyph>
<glyph name="plusminus" format="2">
  <advance width="769"/>
  <unicode hex="00B1"/>
  <outline>
    <contour>
      <point x="273" y="140" type="line"/>
      <point x="493" y="140" type="line"/>
      <point x="493" y="697" type="line"/>
      <point x="273" y="697" type="line"/>
    </contour>
    <contour>
      <point x="732" y="317" type="line"/>
      <point x="732" y="522" type="line"/>
      <point x="35" y="522" type="line"/>
      <point x="35" y="317" type="line"/>
    </contour>
    <contour>
      <point x="722" y="-111" type="line"/>
      <point x="722" y="94" type="line"/>
      <point x="35" y="94" type="line"/>
      <point x="35" y="-111" type="line"/>
    </contour>
  </outline>
</glyph>
<glyph name="twosuperior" format="2">
  <advance width="573"/>
  <unicode hex="00B2"/>
  <outline>
    <contour>
      <point x="28" y="400" type="line"/>
      <point x="556" y="400" type="line"/>
      <point x="556" y="564" type="line"/>
      <point x="104" y="500" type="line"/>
      <point x="106" y="495" type="line"/>
      <point x="398" y="519"/>
      <point x="541" y="605"/>
      <point x="541" y="714" type="curve" smooth="yes"/>
      <point x="541" y="801"/>
      <point x="458" y="865"/>
      <point x="265" y="865" type="curve" smooth="yes"/>
      <point x="182" y="865"/>
      <point x="103" y="849"/>
      <point x="45" y="824" type="curve"/>
      <point x="45" y="659" type="line"/>
      <point x="94" y="680"/>
      <point x="152" y="698"/>
      <point x="209" y="698" type="curve" smooth="yes"/>
      <point x="257" y="698"/>
      <point x="290" y="686"/>
      <point x="290" y="658" type="curve" smooth="yes"/>
      <point x="290" y="626"/>
      <point x="246" y="597"/>
      <point x="28" y="554" type="curve"/>
    </contour>
  </outline>
</glyph>
<glyph name="threesuperior" format="2">
  <advance width="594"/>
  <unicode hex="00B3"/>
  <outline>
    <contour>
      <point x="51" y="414" type="line"/>
      <point x="109" y="396"/>
      <point x="167" y="383"/>
      <point x="261" y="383" type="curve" smooth="yes"/>
      <point x="451" y="383"/>
      <point x="547" y="437"/>
      <point x="547" y="539" type="curve" smooth="yes"/>
      <point x="547" y="633"/>
      <point x="457" y="671"/>
      <point x="337" y="653" type="curve"/>
      <point x="520" y="729" type="line"/>
      <point x="520" y="850" type="line"/>
      <point x="55" y="850" type="line"/>
      <point x="55" y="715" type="line"/>
      <point x="402" y="715" type="line"/>
      <point x="383" y="739" type="line"/>
      <point x="137" y="664" type="line"/>
      <point x="137" y="569" type="line"/>
      <point x="240" y="569" type="line" smooth="yes"/>
      <point x="296" y="569"/>
      <point x="331" y="571"/>
      <point x="331" y="553" type="curve" smooth="yes"/>
      <point x="331" y="536"/>
      <point x="298" y="530"/>
      <point x="242" y="530" type="curve" smooth="yes"/>
      <point x="142" y="530"/>
      <point x="80" y="553"/>
      <point x="35" y="571" type="curve"/>
    </contour>
  </outline>
</glyph>
<glyph name="micro" format="2">
  <advance width="809"/>
  <unicode hex="00B5"/>
  <anchor x="854" y="0" name="bottom"/>
  <anchor x="926" y="7" name="ogonek"/>
  <anchor x="854" y="560" name="top"/>
  <outline>
    <contour>
      <point x="35" y="401" type="line"/>
      <point x="35" y="-245" type="line"/>
      <point x="315" y="-245" type="line"/>
      <point x="315" y="401" type="line"/>
    </contour>
    <component base="u" xOffset="5"/>
  </outline>
</glyph>
<glyph name="paragraph" format="2">
  <advance width="1131"/>
  <unicode hex="00B6"/>
  <outline>
    <contour>
      <point x="794" y="885" type="line"/>
      <point x="794" y="-215" type="line"/>
      <point x="1094" y="-215" type="line"/>
      <point x="1094" y="885" type="line"/>
    </contour>
    <contour>
      <point x="424" y="885" type="line"/>
      <point x="424" y="-215" type="line"/>
      <point x="734" y="-215" type="line"/>
      <point x="734" y="885" type="line"/>
    </contour>
    <contour>
      <point x="12" y="562" type="curve" smooth="yes"/>
      <point x="12" y="334"/>
      <point x="154" y="238"/>
      <point x="381" y="238" type="curve" smooth="yes"/>
      <point x="594" y="238" type="line"/>
      <point x="594" y="885" type="line"/>
      <point x="381" y="885" type="line" smooth="yes"/>
      <point x="154" y="885"/>
      <point x="12" y="791"/>
    </contour>
  </outline>
</glyph>
<glyph name="onesuperior" format="2">
  <advance width="468"/>
  <unicode hex="00B9"/>
  <outline>
    <contour>
      <point x="23" y="578" type="line"/>
      <point x="197" y="578"/>
      <point x="250" y="693"/>
      <point x="246" y="796" type="curve"/>
      <point x="198" y="772" type="line"/>
      <point x="198" y="400" type="line"/>
      <point x="408" y="400" type="line"/>
      <point x="408" y="850" type="line"/>
      <point x="240" y="850" type="line"/>
      <point x="218" y="785"/>
      <point x="167" y="742"/>
      <point x="23" y="735" type="curve"/>
    </contour>
  </outline>
</glyph>
<glyph name="ordmasculine" format="2">
  <advance width="587"/>
  <unicode hex="00BA"/>
  <outline>
    <contour>
      <point x="293" y="365" type="curve" smooth="yes"/>
      <point x="470" y="365"/>
      <point x="570" y="443"/>
      <point x="570" y="580" type="curve" smooth="yes"/>
      <point x="570" y="718"/>
      <point x="469" y="800"/>
      <point x="293" y="800" type="curve" smooth="yes"/>
      <point x="115" y="800"/>
      <point x="15" y="718"/>
      <point x="15" y="580" type="curve" smooth="yes"/>
      <point x="15" y="443"/>
      <point x="115" y="365"/>
    </contour>
    <contour>
      <point x="293" y="500" type="curve" smooth="yes"/>
      <point x="252" y="500"/>
      <point x="235" y="528"/>
      <point x="235" y="581" type="curve" smooth="yes"/>
      <point x="235" y="636"/>
      <point x="252" y="665"/>
      <point x="293" y="665" type="curve" smooth="yes"/>
      <point x="332" y="665"/>
      <point x="350" y="636"/>
      <point x="350" y="581" type="curve" smooth="yes"/>
      <point x="350" y="527"/>
      <point x="332" y="500"/>
    </contour>
  </outline>
</glyph>
<glyph name="AE" format="2">
  <advance width="1478"/>
  <unicode hex="00C6"/>
  <anchor x="296" y="0" name="bottom"/>
  <anchor x="296" y="750" name="top"/>
  <outline>
    <contour>
      <point x="346" y="0" type="line"/>
      <point x="591" y="560" type="line"/>
      <point x="640" y="560" type="line"/>
      <point x="684" y="750" type="line"/>
      <point x="382" y="750" type="line"/>
      <point x="6" y="0" type="line"/>
    </contour>
    <contour>
      <point x="266" y="333" type="line"/>
      <point x="266" y="164" type="line"/>
      <point x="679" y="164" type="line"/>
      <point x="679" y="333" type="line"/>
    </contour>
    <contour>
      <point x="630" y="0" type="line"/>
      <point x="1441" y="0" type="line"/>
      <point x="1441" y="200" type="line"/>
      <point x="940" y="200" type="line"/>
      <point x="940" y="298" type="line"/>
      <point x="1390" y="298" type="line"/>
      <point x="1390" y="464" type="line"/>
      <point x="940" y="464" type="line"/>
      <point x="940" y="560" type="line"/>
      <point x="1433" y="560" type="line"/>
      <point x="1433" y="750" type="line"/>
      <point x="630" y="750" type="line"/>
    </contour>
  </outline>
</glyph>
<glyph name="Eth" format="2">
  <advance width="1046"/>
  <unicode hex="00D0"/>
  <outline>
    <contour>
      <point x="0" y="303" type="line"/>
      <point x="506" y="304" type="line"/>
      <point x="506" y="454" type="line"/>
      <point x="0" y="454" type="line"/>
    </contour>
    <component base="D" xOffset="30"/>
  </outline>
</glyph>
<glyph name="multiply" format="2">
  <advance width="730"/>
  <unicode hex="00D7"/>
  <outline>
    <contour>
      <point x="540" y="-30" type="line"/>
      <point x="691" y="117" type="line"/>
      <point x="193" y="615" type="line"/>
      <point x="41" y="469" type="line"/>
    </contour>
    <contour>
      <point x="693" y="470" type="line"/>
      <point x="548" y="615" type="line"/>
      <point x="35" y="115" type="line"/>
      <point x="180" y="-30" type="line"/>
    </contour>
  </outline>
</glyph>
<glyph name="Oslash" format="2">
  <advance width="1053"/>
  <unicode hex="00D8"/>
  <outline>
    <contour>
      <point x="875" y="831" type="line"/>
      <point x="70" y="25" type="line"/>
      <point x="182" y="-87" type="line"/>
      <point x="988" y="718" type="line"/>
    </contour>
    <component base="O"/>
  </outline>
</glyph>
<glyph name="Thorn" format="2">
  <advance width="989"/>
  <unicode hex="00DE"/>
  <outline>
    <contour>
      <point x="58" y="0" type="line"/>
      <point x="368" y="0" type="line"/>
      <point x="368" y="130" type="line"/>
      <point x="724" y="130" type="line" smooth="yes"/>
      <point x="877" y="130"/>
      <point x="975" y="236"/>
      <point x="975" y="401" type="curve" smooth="yes"/>
      <point x="975" y="559"/>
      <point x="877" y="660"/>
      <point x="724" y="660" type="curve" smooth="yes"/>
      <point x="368" y="660" type="line"/>
      <point x="368" y="780" type="line"/>
      <point x="58" y="780" type="line"/>
    </contour>
    <contour>
      <point x="368" y="330" type="line"/>
      <point x="368" y="460" type="line"/>
      <point x="547" y="460" type="line" smooth="yes"/>
      <point x="619" y="460"/>
      <point x="655" y="446"/>
      <point x="655" y="395" type="curve" smooth="yes"/>
      <point x="655" y="346"/>
      <point x="620" y="330"/>
      <point x="554" y="330" type="curve" smooth="yes"/>
    </contour>
  </outline>
</glyph>
<glyph name="germandbls" format="2">
  <advance width="1106"/>
  <unicode hex="00DF"/>
  <anchor x="552" y="0" name="bottom"/>
  <anchor x="552" y="800" name="top"/>
  <outline>
    <contour>
      <point x="133" y="0" type="line"/>
      <point x="433" y="0" type="line"/>
      <point x="433" y="545" type="line" smooth="yes"/>
      <point x="433" y="595"/>
      <point x="481" y="627"/>
      <point x="569" y="627" type="curve" smooth="yes"/>
      <point x="641" y="627"/>
      <point x="686" y="607"/>
      <point x="686" y="579" type="curve" smooth="yes"/>
      <point x="686" y="518"/>
      <point x="477" y="560"/>
      <point x="477" y="388" type="curve" smooth="yes"/>
      <point x="477" y="188"/>
      <point x="782" y="267"/>
      <point x="782" y="183" type="curve" smooth="yes"/>
      <point x="782" y="157"/>
      <point x="753" y="138"/>
      <point x="684" y="138" type="curve" smooth="yes"/>
      <point x="621" y="138"/>
      <point x="544" y="154"/>
      <point x="474" y="185" type="curve"/>
      <point x="474" y="22" type="line"/>
      <point x="544" y="-6"/>
      <point x="632" y="-21"/>
      <point x="732" y="-21" type="curve" smooth="yes"/>
      <point x="962" y="-21"/>
      <point x="1082" y="42"/>
      <point x="1082" y="172" type="curve" smooth="yes"/>
      <point x="1082" y="398"/>
      <point x="766" y="322"/>
      <point x="766" y="410" type="curve" smooth="yes"/>
      <point x="766" y="484"/>
      <point x="986" y="429"/>
      <point x="986" y="614" type="curve" smooth="yes"/>
      <point x="986" y="752"/>
      <point x="842" y="810"/>
      <point x="582" y="810" type="curve" smooth="yes"/>
      <point x="282" y="810"/>
      <point x="133" y="727"/>
      <point x="133" y="568" type="curve" smooth="yes"/>
    </contour>
    <contour>
      <point x="153" y="348" type="line"/>
      <point x="153" y="533" type="line"/>
      <point x="6" y="533" type="line"/>
      <point x="6" y="348" type="line"/>
    </contour>
  </outline>
</glyph>
<glyph name="ae" format="2">
  <advance width="1220"/>
  <unicode hex="00E6"/>
  <anchor x="780" y="0" name="bottom"/>
  <anchor x="780" y="570" name="top"/>
  <outline>
    <contour>
      <point x="12" y="129" type="curve" smooth="yes"/>
      <point x="12" y="34"/>
      <point x="85" y="-26"/>
      <point x="198" y="-26" type="curve" smooth="yes"/>
      <point x="303" y="-26"/>
      <point x="437" y="13"/>
      <point x="524" y="120" type="curve"/>
      <point x="586" y="176" type="line"/>
      <point x="738" y="297" type="line" smooth="yes"/>
      <point x="738" y="491"/>
      <point x="607" y="597"/>
      <point x="367" y="597" type="curve" smooth="yes"/>
      <point x="254" y="597"/>
      <point x="130" y="576"/>
      <point x="58" y="550" type="curve"/>
      <point x="58" y="372" type="line"/>
      <point x="160" y="400"/>
      <point x="225" y="409"/>
      <point x="295" y="409" type="curve" smooth="yes"/>
      <point x="400" y="409"/>
      <point x="447" y="380"/>
      <point x="447" y="325" type="curve" smooth="yes"/>
      <point x="447" y="321" type="line"/>
      <point x="430" y="321" type="line" smooth="yes"/>
      <point x="133" y="321"/>
      <point x="12" y="252"/>
    </contour>
    <contour>
      <point x="277" y="168" type="curve" smooth="yes"/>
      <point x="277" y="212"/>
      <point x="321" y="231"/>
      <point x="434" y="231" type="curve" smooth="yes"/>
      <point x="447" y="231" type="line"/>
      <point x="447" y="177" type="line"/>
      <point x="393" y="135"/>
      <point x="356" y="124"/>
      <point x="329" y="124" type="curve" smooth="yes"/>
      <point x="299" y="124"/>
      <point x="277" y="137"/>
    </contour>
    <contour>
      <point x="447" y="279" type="curve" smooth="yes"/>
      <point x="447" y="86"/>
      <point x="608" y="-24"/>
      <point x="892" y="-24" type="curve" smooth="yes"/>
      <point x="1010" y="-24"/>
      <point x="1097" y="-7"/>
      <point x="1184" y="26" type="curve"/>
      <point x="1191" y="191" type="line"/>
      <point x="1110" y="166"/>
      <point x="1017" y="151"/>
      <point x="941" y="151" type="curve" smooth="yes"/>
      <point x="830" y="151"/>
      <point x="763" y="180"/>
      <point x="735" y="242" type="curve"/>
      <point x="1192" y="242" type="line"/>
      <point x="1192" y="314" type="line" smooth="yes"/>
      <point x="1192" y="486"/>
      <point x="1056" y="597"/>
      <point x="844" y="597" type="curve" smooth="yes"/>
      <point x="594" y="597"/>
      <point x="447" y="479"/>
    </contour>
    <contour>
      <point x="733" y="332" type="line"/>
      <point x="733" y="392"/>
      <point x="766" y="432"/>
      <point x="821" y="432" type="curve" smooth="yes"/>
      <point x="874" y="432"/>
      <point x="903" y="392"/>
      <point x="903" y="332" type="curve"/>
    </contour>
  </outline>
</glyph>
<glyph name="eth" format="2">
  <advance width="861"/>
  <unicode hex="00F0"/>
  <outline>
    <contour>
      <point x="416" y="-23" type="curve" smooth="yes"/>
      <point x="682" y="-23"/>
      <point x="837" y="119"/>
      <point x="837" y="359" type="curve" smooth="yes"/>
      <point x="837" y="579"/>
      <point x="709" y="772"/>
      <point x="467" y="875" type="curve"/>
      <point x="161" y="793" type="line"/>
      <point x="362" y="725"/>
      <point x="507" y="597"/>
      <point x="543" y="477" type="curve"/>
      <point x="492" y="535"/>
      <point x="416" y="566"/>
      <point x="312" y="566" type="curve" smooth="yes"/>
      <point x="126" y="566"/>
      <point x="23" y="449"/>
      <point x="23" y="278" type="curve" smooth="yes"/>
      <point x="23" y="76"/>
      <point x="186" y="-23"/>
    </contour>
    <contour>
      <point x="426" y="151" type="curve" smooth="yes"/>
      <point x="371" y="150"/>
      <point x="343" y="194"/>
      <point x="343" y="280" type="curve" smooth="yes"/>
      <point x="343" y="366"/>
      <point x="371" y="411"/>
      <point x="426" y="411" type="curve" smooth="yes"/>
      <point x="481" y="411"/>
      <point x="510" y="367"/>
      <point x="510" y="282" type="curve" smooth="yes"/>
      <point x="510" y="196"/>
      <point x="481" y="151"/>
    </contour>
    <contour>
      <point x="151" y="570" type="line"/>
      <point x="573" y="665" type="line"/>
      <point x="586" y="665" type="line"/>
      <point x="838" y="726" type="line"/>
      <point x="810" y="837" type="line"/>
      <point x="126" y="679" type="line"/>
    </contour>
  </outline>
</glyph>
<glyph name="oslash" format="2">
  <advance width="825"/>
  <unicode hex="00F8"/>
  <outline>
    <contour>
      <point x="688" y="644" type="line"/>
      <point x="38" y="-8" type="line"/>
      <point x="120" y="-88" type="line"/>
      <point x="771" y="563" type="line"/>
    </contour>
    <component base="o" xOffset="1"/>
  </outline>
</glyph>
<glyph name="thorn" format="2">
  <advance width="867"/>
  <unicode hex="00FE"/>
  <outline>
    <contour>
      <point x="572" y="-24" type="curve" smooth="yes"/>
      <point x="745" y="-24"/>
      <point x="844" y="110"/>
      <point x="844" y="289" type="curve" smooth="yes"/>
      <point x="844" y="466"/>
      <point x="736" y="593"/>
      <point x="566" y="593" type="curve" smooth="yes"/>
      <point x="460" y="593"/>
      <point x="388" y="548"/>
      <point x="335" y="458" type="curve"/>
      <point x="335" y="800" type="line"/>
      <point x="35" y="800" type="line"/>
      <point x="35" y="-230" type="line"/>
      <point x="335" y="-230" type="line"/>
      <point x="335" y="113" type="line"/>
      <point x="381" y="21"/>
      <point x="466" y="-24"/>
    </contour>
    <contour>
      <point x="441" y="147" type="curve" smooth="yes"/>
      <point x="385" y="147"/>
      <point x="357" y="193"/>
      <point x="357" y="276" type="curve" smooth="yes"/>
      <point x="357" y="284" type="line" smooth="yes"/>
      <point x="357" y="363"/>
      <point x="391" y="407"/>
      <point x="441" y="407" type="curve" smooth="yes"/>
      <point x="497" y="408"/>
      <point x="524" y="362"/>
      <point x="524" y="278" type="curve" smooth="yes"/>
      <point x="524" y="193"/>
      <point x="497" y="147"/>
    </contour>
  </outline>
</glyph>
<glyph name="dcroat" format="2">
  <advance width="966"/>
  <unicode hex="0111"/>
  <outline>
    <contour>
      <point x="272" y="750" type="line"/>
      <point x="272" y="625" type="line"/>
      <point x="930" y="625" type="line"/>
      <point x="930" y="750" type="line"/>
    </contour>
    <component base="d" xOffset="12"/>
  </outline>
</glyph>
<glyph name="Hbar" format="2">
  <advance width="977"/>
  <unicode hex="0126"/>
  <outline>
    <contour>
      <point x="-81" y="533" type="line"/>
      <point x="1058" y="534" type="line"/>
      <point x="1058" y="693" type="line"/>
      <point x="-81" y="693" type="line"/>
    </contour>
    <component base="H" xOffset="-7"/>
  </outline>
</glyph>
<glyph name="hbar" format="2">
  <advance width="799"/>
  <unicode hex="0127"/>
  <outline>
    <contour>
      <point x="-93" y="730" type="line"/>
      <point x="-93" y="605" type="line"/>
      <point x="635" y="605" type="line"/>
      <point x="635" y="730" type="line"/>
    </contour>
    <component base="h" xOffset="-13"/>
  </outline>
</glyph>
<glyph name="idotless" format="2">
  <advance width="382"/>
  <unicode hex="0131"/>
  <anchor x="191" y="0" name="bottom"/>
  <anchor x="294" y="10" name="ogonek"/>
  <anchor x="191" y="570" name="top"/>
  <outline>
    <contour>
      <point x="41" y="570" type="line"/>
      <point x="41" y="0" type="line"/>
      <point x="341" y="0" type="line"/>
      <point x="341" y="570" type="line"/>
    </contour>
  </outline>
</glyph>
<glyph name="Lslash" format="2">
  <advance width="853"/>
  <unicode hex="0141"/>
  <outline>
    <contour>
      <point x="-64" y="452" type="line"/>
      <point x="-64" y="262" type="line"/>
      <point x="574" y="500" type="line"/>
      <point x="574" y="689" type="line"/>
    </contour>
    <component base="L" xOffset="-9"/>
  </outline>
</glyph>
<glyph name="lslash" format="2">
  <advance width="576"/>
  <unicode hex="0142"/>
  <outline>
    <contour>
      <point x="15" y="430" type="line"/>
      <point x="15" y="240" type="line"/>
      <point x="561" y="489" type="line"/>
      <point x="561" y="678" type="line"/>
    </contour>
    <component base="l" xOffset="92"/>
  </outline>
</glyph>
<glyph name="OE" format="2">
  <advance width="1534"/>
  <unicode hex="0152"/>
  <anchor x="493" y="0" name="bottom"/>
  <anchor x="493" y="375" name="center"/>
  <anchor x="885" y="10" name="ogonek"/>
  <anchor x="493" y="750" name="top"/>
  <anchor x="23" y="750" name="topleft"/>
  <anchor x="963" y="750" name="topright"/>
  <outline>
    <contour>
      <point x="716" y="483" type="curve"/>
      <point x="726" y="740" type="line"/>
      <point x="659" y="762"/>
      <point x="591" y="775"/>
      <point x="501" y="775" type="curve" smooth="yes"/>
      <point x="196" y="775"/>
      <point x="23" y="620"/>
      <point x="23" y="375" type="curve" smooth="yes"/>
      <point x="23" y="129"/>
      <point x="196" y="-26"/>
      <point x="498" y="-26" type="curve" smooth="yes"/>
      <point x="591" y="-26"/>
      <point x="664" y="-11"/>
      <point x="726" y="15" type="curve"/>
      <point x="716" y="263" type="line"/>
      <point x="670" y="215"/>
      <point x="599" y="204"/>
      <point x="548" y="204" type="curve" smooth="yes"/>
      <point x="426" y="204"/>
      <point x="353" y="263"/>
      <point x="353" y="375" type="curve" smooth="yes"/>
      <point x="353" y="491"/>
      <point x="426" y="547"/>
      <point x="550" y="547" type="curve" smooth="yes"/>
      <point x="632" y="547"/>
      <point x="679" y="520"/>
    </contour>
    <contour>
      <point x="686" y="0" type="line"/>
      <point x="1497" y="0" type="line"/>
      <point x="1497" y="200" type="line"/>
      <point x="996" y="200" type="line"/>
      <point x="996" y="298" type="line"/>
      <point x="1446" y="298" type="line"/>
      <point x="1446" y="464" type="line"/>
      <point x="996" y="464" type="line"/>
      <point x="996" y="560" type="line"/>
      <point x="1489" y="560" type="line"/>
      <point x="1489" y="750" type="line"/>
      <point x="686" y="750" type="line"/>
    </contour>
  </outline>
</glyph>
<glyph name="oe" format="2">
  <advance width="1289"/>
  <unicode hex="0153"/>
  <anchor x="645" y="0" name="bottom"/>
  <anchor x="645" y="570" name="top"/>
  <outline>
    <contour>
      <point x="414" y="-24" type="curve" smooth="yes"/>
      <point x="663" y="-24"/>
      <point x="764" y="88"/>
      <point x="764" y="282" type="curve" smooth="yes"/>
      <point x="764" y="478"/>
      <point x="663" y="595"/>
      <point x="414" y="595" type="curve" smooth="yes"/>
      <point x="164" y="595"/>
      <point x="23" y="478"/>
      <point x="23" y="282" type="curve" smooth="yes"/>
      <point x="23" y="88"/>
      <point x="164" y="-24"/>
    </contour>
    <contour>
      <point x="414" y="162" type="curve" smooth="yes"/>
      <point x="352" y="162"/>
      <point x="323" y="204"/>
      <point x="323" y="284" type="curve" smooth="yes"/>
      <point x="323" y="366"/>
      <point x="352" y="410"/>
      <point x="414" y="410" type="curve" smooth="yes"/>
      <point x="475" y="410"/>
      <point x="504" y="366"/>
      <point x="504" y="284" type="curve" smooth="yes"/>
      <point x="504" y="204"/>
      <point x="475" y="162"/>
    </contour>
    <contour>
      <point x="556" y="279" type="curve" smooth="yes"/>
      <point x="556" y="86"/>
      <point x="677" y="-24"/>
      <point x="961" y="-24" type="curve" smooth="yes"/>
      <point x="1079" y="-24"/>
      <point x="1166" y="-7"/>
      <point x="1253" y="26" type="curve"/>
      <point x="1260" y="191" type="line"/>
      <point x="1179" y="166"/>
      <point x="1086" y="151"/>
      <point x="1010" y="151" type="curve" smooth="yes"/>
      <point x="899" y="151"/>
      <point x="832" y="180"/>
      <point x="804" y="242" type="curve"/>
      <point x="1261" y="242" type="line"/>
      <point x="1261" y="314" type="line" smooth="yes"/>
      <point x="1261" y="486"/>
      <point x="1125" y="597"/>
      <point x="913" y="597" type="curve" smooth="yes"/>
      <point x="663" y="597"/>
      <point x="556" y="479"/>
    </contour>
    <contour>
      <point x="802" y="332" type="line"/>
      <point x="802" y="392"/>
      <point x="835" y="432"/>
      <point x="890" y="432" type="curve" smooth="yes"/>
      <point x="943" y="432"/>
      <point x="972" y="392"/>
      <point x="972" y="332" type="curve"/>
    </contour>
  </outline>
</glyph>
<glyph name="Schwa" format="2">
  <advance width="1049"/>
  <unicode hex="018F"/>
  <outline>
    <contour>
      <point x="1026" y="392" type="curve" smooth="yes"/>
      <point x="1026" y="652"/>
      <point x="829" y="810"/>
      <point x="457" y="810" type="curve" smooth="yes"/>
      <point x="288" y="810"/>
      <point x="151" y="777"/>
      <point x="57" y="727" type="curve"/>
      <point x="47" y="505" type="line"/>
      <point x="129" y="543"/>
      <point x="241" y="574"/>
      <point x="361" y="574" type="curve" smooth="yes"/>
      <point x="510" y="574"/>
      <point x="631" y="525"/>
      <point x="688" y="442" type="curve"/>
      <point x="23" y="442" type="line"/>
      <point x="23" y="395" type="line" smooth="yes"/>
      <point x="23" y="113"/>
      <point x="206" y="-36"/>
      <point x="492" y="-36" type="curve" smooth="yes"/>
      <point x="828" y="-36"/>
      <point x="1026" y="123"/>
    </contour>
    <contour>
      <point x="691" y="311" type="line"/>
      <point x="691" y="240"/>
      <point x="628" y="186"/>
      <point x="521" y="186" type="curve" smooth="yes"/>
      <point x="418" y="186"/>
      <point x="362" y="240"/>
      <point x="362" y="311" type="curve"/>
    </contour>
  </outline>
</glyph>
<glyph name="florin" format="2">
  <advance width="992"/>
  <unicode hex="0192"/>
  <outline>
    <contour>
      <point x="159" y="229" type="line"/>
      <point x="351" y="229" type="line"/>
      <point x="351" y="80"/>
      <point x="304" y="-1"/>
      <point x="190" y="-1" type="curve" smooth="yes"/>
      <point x="153" y="-1"/>
      <point x="119" y="7"/>
      <point x="81" y="22" type="curve"/>
      <point x="94" y="-193" type="line"/>
      <point x="144" y="-207"/>
      <point x="196" y="-215"/>
      <point x="254" y="-215" type="curve" smooth="yes"/>
      <point x="481" y="-215"/>
      <point x="639" y="-88"/>
      <point x="639" y="229" type="curve"/>
      <point x="863" y="229" type="line"/>
      <point x="863" y="429" type="line"/>
      <point x="639" y="429" type="line"/>
      <point x="639" y="557"/>
      <point x="681" y="622"/>
      <point x="789" y="622" type="curve" smooth="yes"/>
      <point x="830" y="622"/>
      <point x="871" y="614"/>
      <point x="909" y="599" type="curve"/>
      <point x="896" y="814" type="line"/>
      <point x="846" y="828"/>
      <point x="794" y="836"/>
      <point x="729" y="836" type="curve" smooth="yes"/>
      <point x="490" y="836"/>
      <point x="351" y="687"/>
      <point x="351" y="429" type="curve"/>
      <point x="159" y="429" type="line"/>
    </contour>
  </outline>
</glyph>
<glyph name="jdotless" format="2">
  <advance width="430"/>
  <unicode hex="0237"/>
  <anchor x="225" y="-200" name="bottom"/>
  <anchor x="230" y="570" name="top"/>
  <outline>
    <contour>
      <point x="383" y="570" type="line"/>
      <point x="83" y="570" type="line"/>
      <point x="83" y="60" type="line" smooth="yes"/>
      <point x="83" y="-7"/>
      <point x="49" y="-56"/>
      <point x="-75" y="-56" type="curve" smooth="yes"/>
      <point x="-100" y="-56"/>
      <point x="-136" y="-54"/>
      <point x="-195" y="-45" type="curve"/>
      <point x="-176" y="-239" type="line"/>
      <point x="-121" y="-255"/>
      <point x="-63" y="-260"/>
      <point x="-5" y="-260" type="curve" smooth="yes"/>
      <point x="274" y="-260"/>
      <point x="383" y="-143"/>
      <point x="383" y="-1" type="curve" smooth="yes"/>
    </contour>
  </outline>
</glyph>
<glyph name="gravecomb" format="2">
  <advance width="624"/>
  <unicode hex="0300"/>
  <anchor x="328" y="535" name="_top"/>
  <anchor x="288" y="796" name="top"/>
  <outline>
    <contour>
      <point x="405" y="796" type="line"/>
      <point x="65" y="796" type="line"/>
      <point x="229" y="615" type="line"/>
      <point x="510" y="615" type="line"/>
    </contour>
  </outline>
</glyph>
<glyph name="acutecomb" format="2">
  <advance width="624"/>
  <unicode hex="0301"/>
  <anchor x="238" y="535" name="_top"/>
  <anchor x="288" y="796" name="top"/>
  <outline>
    <contour>
      <point x="170" y="796" type="line"/>
      <point x="65" y="615" type="line"/>
      <point x="346" y="615" type="line"/>
      <point x="510" y="796" type="line"/>
    </contour>
  </outline>
</glyph>
<glyph name="circumflexcomb" format="2">
  <advance width="742"/>
  <unicode hex="0302"/>
  <anchor x="370" y="535" name="_top"/>
  <anchor x="370" y="785" name="top"/>
  <outline>
    <contour>
      <point x="173" y="785" type="line"/>
      <point x="35" y="604" type="line"/>
      <point x="286" y="604" type="line"/>
      <point x="415" y="739" type="line"/>
      <point x="325" y="739" type="line"/>
      <point x="454" y="604" type="line"/>
      <point x="705" y="604" type="line"/>
      <point x="567" y="785" type="line"/>
    </contour>
  </outline>
</glyph>
<glyph name="tildecomb" format="2">
  <advance width="600"/>
  <unicode hex="0303"/>
  <anchor x="302" y="525" name="_top"/>
  <anchor x="302" y="824" name="top"/>
  <outline>
    <contour>
      <point x="2" y="600" type="curve"/>
      <point x="150" y="594" type="line"/>
      <point x="152" y="638"/>
      <point x="185" y="655"/>
      <point x="222" y="655" type="curve" smooth="yes"/>
      <point x="297" y="655"/>
      <point x="291" y="583"/>
      <point x="411" y="582" type="curve" smooth="yes"/>
      <point x="538" y="580"/>
      <point x="602" y="660"/>
      <point x="602" y="805" type="curve"/>
      <point x="454" y="812" type="line"/>
      <point x="451" y="769"/>
      <point x="419" y="752"/>
      <point x="386" y="752" type="curve" smooth="yes"/>
      <point x="317" y="752"/>
      <point x="320" y="824"/>
      <point x="196" y="824" type="curve" smooth="yes"/>
      <point x="69" y="824"/>
      <point x="2" y="744"/>
    </contour>
  </outline>
</glyph>
<glyph name="macroncomb" format="2">
  <advance width="609"/>
  <unicode hex="0304"/>
  <anchor x="297" y="505" name="_top"/>
  <anchor x="297" y="790" name="top"/>
  <outline>
    <contour>
      <point x="23" y="790" type="line"/>
      <point x="23" y="605" type="line"/>
      <point x="571" y="605" type="line"/>
      <point x="571" y="790" type="line"/>
    </contour>
  </outline>
</glyph>
<glyph name="brevecomb" format="2">
  <advance width="606"/>
  <unicode hex="0306"/>
  <anchor x="324" y="535" name="_top"/>
  <anchor x="324" y="800" name="top"/>
  <outline>
    <contour>
      <point x="46" y="800" type="line"/>
      <point x="46" y="648"/>
      <point x="109" y="585"/>
      <point x="324" y="585" type="curve" smooth="yes"/>
      <point x="538" y="585"/>
      <point x="602" y="648"/>
      <point x="602" y="800" type="curve"/>
      <point x="367" y="800" type="line"/>
      <point x="367" y="725"/>
      <point x="352" y="701"/>
      <point x="324" y="701" type="curve" smooth="yes"/>
      <point x="296" y="701"/>
      <point x="281" y="725"/>
      <point x="281" y="800" type="curve"/>
    </contour>
  </outline>
</glyph>
<glyph name="dotaccentcomb" format="2">
  <advance width="653"/>
  <unicode hex="0307"/>
  <anchor x="337" y="535" name="_top"/>
  <anchor x="337" y="810" name="top"/>
  <outline>
    <contour>
      <point x="207" y="810" type="line"/>
      <point x="207" y="606" type="line"/>
      <point x="467" y="606" type="line"/>
      <point x="467" y="810" type="line"/>
    </contour>
  </outline>
</glyph>
<glyph name="dieresiscomb" format="2">
  <advance width="604"/>
  <unicode hex="0308"/>
  <anchor x="300" y="535" name="_top"/>
  <anchor x="300" y="810" name="top"/>
  <outline>
    <contour>
      <point x="10" y="810" type="line"/>
      <point x="10" y="606" type="line"/>
      <point x="270" y="606" type="line"/>
      <point x="270" y="810" type="line"/>
    </contour>
    <contour>
      <point x="330" y="810" type="line"/>
      <point x="330" y="606" type="line"/>
      <point x="590" y="606" type="line"/>
      <point x="590" y="810" type="line"/>
    </contour>
  </outline>
</glyph>
<glyph name="ringcomb" format="2">
  <advance width="612"/>
  <unicode hex="030A"/>
  <anchor x="308" y="485" name="_top"/>
  <anchor x="308" y="824" name="top"/>
  <outline>
    <contour>
      <point x="49" y="598"/>
      <point x="137" y="550"/>
      <point x="308" y="550" type="curve" smooth="yes"/>
      <point x="478" y="550"/>
      <point x="566" y="596"/>
      <point x="565" y="685" type="curve" smooth="yes"/>
      <point x="564" y="776"/>
      <point x="475" y="824"/>
      <point x="308" y="824" type="curve" smooth="yes"/>
      <point x="140" y="824"/>
      <point x="51" y="778"/>
      <point x="50" y="688" type="curve" smooth="yes"/>
    </contour>
    <contour>
      <point x="227" y="713"/>
      <point x="255" y="728"/>
      <point x="308" y="728" type="curve" smooth="yes"/>
      <point x="360" y="728"/>
      <point x="388" y="713"/>
      <point x="388" y="688" type="curve" smooth="yes"/>
      <point x="388" y="664"/>
      <point x="360" y="651"/>
      <point x="308" y="651" type="curve" smooth="yes"/>
      <point x="255" y="651"/>
      <point x="227" y="664"/>
      <point x="227" y="688" type="curve" smooth="yes"/>
    </contour>
  </outline>
</glyph>
<glyph name="hungarumlautcomb" format="2">
  <advance width="574"/>
  <unicode hex="030B"/>
  <anchor x="269" y="535" name="_top"/>
  <anchor x="339" y="795" name="top"/>
  <outline>
    <contour>
      <point x="422" y="795" type="line"/>
      <point x="294" y="613" type="line"/>
      <point x="536" y="613" type="line"/>
      <point x="723" y="795" type="line"/>
    </contour>
    <contour>
      <point x="59" y="795" type="line"/>
      <point x="-46" y="613" type="line"/>
      <point x="195" y="613" type="line"/>
      <point x="359" y="795" type="line"/>
    </contour>
  </outline>
</glyph>
<glyph name="caroncomb" format="2">
  <advance width="742"/>
  <unicode hex="030C"/>
  <anchor x="370" y="535" name="_top"/>
  <anchor x="370" y="786" name="top"/>
  <outline>
    <contour>
      <point x="567" y="605" type="line"/>
      <point x="705" y="786" type="line"/>
      <point x="454" y="786" type="line"/>
      <point x="325" y="651" type="line"/>
      <point x="415" y="651" type="line"/>
      <point x="286" y="786" type="line"/>
      <point x="35" y="786" type="line"/>
      <point x="173" y="605" type="line"/>
    </contour>
  </outline>
</glyph>
<glyph name="commaturnedabovecomb" format="2">
  <advance width="643"/>
  <unicode hex="0312"/>
  <anchor x="325" y="635" name="_top"/>
  <anchor x="325" y="974" name="top"/>
  <outline>
    <contour>
      <point x="451" y="751" type="line"/>
      <point x="489" y="974" type="line"/>
      <point x="255" y="974" type="line"/>
      <point x="160" y="751" type="line"/>
    </contour>
  </outline>
</glyph>
<glyph name="commaaccentcomb" format="2">
  <advance width="643"/>
  <unicode hex="0326"/>
  <anchor x="332" y="48" name="_bottom"/>
  <anchor x="319" y="-295" name="bottom"/>
  <outline>
    <contour>
      <point x="191" y="-42" type="line"/>
      <point x="155" y="-295" type="line"/>
      <point x="399" y="-295" type="line"/>
      <point x="482" y="-42" type="line"/>
    </contour>
  </outline>
</glyph>
<glyph name="cedillacomb" format="2">
  <advance width="632"/>
  <unicode hex="0327"/>
  <anchor x="254" y="7" name="_bottom"/>
  <anchor x="284" y="-348" name="bottom"/>
  <outline>
    <contour>
      <point x="83" y="-176" type="line"/>
      <point x="136" y="-173"/>
      <point x="169" y="-172"/>
      <point x="194" y="-172" type="curve" smooth="yes"/>
      <point x="255" y="-172"/>
      <point x="280" y="-179"/>
      <point x="280" y="-198" type="curve" smooth="yes"/>
      <point x="280" y="-216"/>
      <point x="257" y="-224"/>
      <point x="198" y="-224" type="curve" smooth="yes"/>
      <point x="181" y="-224"/>
      <point x="147" y="-223"/>
      <point x="83" y="-220" type="curve"/>
      <point x="82" y="-340" type="line"/>
      <point x="140" y="-345"/>
      <point x="201" y="-348"/>
      <point x="260" y="-348" type="curve" smooth="yes"/>
      <point x="401" y="-348"/>
      <point x="486" y="-295"/>
      <point x="486" y="-194" type="curve" smooth="yes"/>
      <point x="486" y="-85"/>
      <point x="403" y="-51"/>
      <point x="237" y="-51" type="curve" smooth="yes"/>
      <point x="201" y="-51"/>
      <point x="150" y="-52"/>
      <point x="83" y="-58" type="curve"/>
    </contour>
  </outline>
</glyph>
<glyph name="ogonekcomb" format="2">
  <advance width="467"/>
  <unicode hex="0328"/>
  <anchor x="360" y="84" name="_ogonek"/>
  <outline>
    <contour>
      <point x="407" y="74" type="curve"/>
      <point x="205" y="95" type="line"/>
      <point x="107" y="54"/>
      <point x="58" y="-11"/>
      <point x="58" y="-85" type="curve" smooth="yes"/>
      <point x="58" y="-228"/>
      <point x="256" y="-270"/>
      <point x="403" y="-192" type="curve"/>
      <point x="403" y="-59" type="line"/>
      <point x="353" y="-77"/>
      <point x="302" y="-68"/>
      <point x="302" y="-28" type="curve" smooth="yes"/>
      <point x="302" y="-6"/>
      <point x="318" y="20"/>
    </contour>
  </outline>
</glyph>
<glyph name="Germandbls" format="2">
  <advance width="1022"/>
  <unicode hex="1E9E"/>
  <outline>
    <contour>
      <point x="23" y="0" type="line"/>
      <point x="283" y="0" type="line"/>
      <point x="283" y="385" type="line" smooth="yes"/>
      <point x="283" y="487"/>
      <point x="310" y="550"/>
      <point x="442" y="550" type="curve" smooth="yes"/>
      <point x="832" y="550" type="line"/>
      <point x="756" y="660" type="line"/>
      <point x="452" y="446" type="line"/>
      <point x="452" y="302" type="line"/>
      <point x="639" y="302"/>
      <point x="675" y="292"/>
      <point x="675" y="250" type="curve" smooth="yes"/>
      <point x="675" y="209"/>
      <point x="641" y="191"/>
      <point x="568" y="191" type="curve" smooth="yes"/>
      <point x="483" y="191"/>
      <point x="414" y="201"/>
      <point x="356" y="215" type="curve"/>
      <point x="366" y="-5" type="line"/>
      <point x="432" y="-18"/>
      <point x="504" y="-26"/>
      <point x="594" y="-26" type="curve" smooth="yes"/>
      <point x="831" y="-26"/>
      <point x="986" y="63"/>
      <point x="986" y="230" type="curve" smooth="yes"/>
      <point x="986" y="386"/>
      <point x="836" y="452"/>
      <point x="709" y="442" type="curve"/>
      <point x="940" y="567" type="line"/>
      <point x="940" y="750" type="line"/>
      <point x="457" y="750" type="line" smooth="yes"/>
      <point x="179" y="750"/>
      <point x="23" y="653"/>
      <point x="23" y="468" type="curve" smooth="yes"/>
    </contour>
  </outline>
</glyph>
<glyph name="endash" format="2">
  <advance width="572"/>
  <unicode hex="2013"/>
  <outline>
    <contour>
      <point x="35" y="410" type="line"/>
      <point x="35" y="180" type="line"/>
      <point x="535" y="180" type="line"/>
      <point x="535" y="410" type="line"/>
    </contour>
  </outline>
</glyph>
<glyph name="emdash" format="2">
  <advance width="1072"/>
  <unicode hex="2014"/>
  <outline>
    <contour>
      <point x="35" y="410" type="line"/>
      <point x="35" y="180" type="line"/>
      <point x="1035" y="180" type="line"/>
      <point x="1035" y="410" type="line"/>
    </contour>
  </outline>
</glyph>
<glyph name="quoteleft" format="2">
  <advance width="440"/>
  <unicode hex="2018"/>
  <outline>
    <contour>
      <point x="383" y="454" type="line"/>
      <point x="426" y="785" type="line"/>
      <point x="191" y="785" type="line"/>
      <point x="58" y="454" type="line"/>
    </contour>
  </outline>
</glyph>
<glyph name="quoteright" format="2">
  <advance width="440"/>
  <unicode hex="2019"/>
  <outline>
    <contour>
      <point x="55" y="785" type="line"/>
      <point x="12" y="454" type="line"/>
      <point x="247" y="454" type="line"/>
      <point x="380" y="785" type="line"/>
    </contour>
  </outline>
</glyph>
<glyph name="quotesinglbase" format="2">
  <advance width="463"/>
  <unicode hex="201A"/>
  <outline>
    <contour>
      <point x="101" y="80" type="line"/>
      <point x="58" y="-251" type="line"/>
      <point x="293" y="-251" type="line"/>
      <point x="426" y="80" type="line"/>
    </contour>
  </outline>
</glyph>
<glyph name="quotedblleft" format="2">
  <advance width="843"/>
  <unicode hex="201C"/>
  <outline>
    <contour>
      <point x="763" y="454" type="line"/>
      <point x="806" y="785" type="line"/>
      <point x="571" y="785" type="line"/>
      <point x="438" y="454" type="line"/>
    </contour>
    <contour>
      <point x="383" y="454" type="line"/>
      <point x="426" y="785" type="line"/>
      <point x="191" y="785" type="line"/>
      <point x="58" y="454" type="line"/>
    </contour>
  </outline>
</glyph>
<glyph name="quotedblright" format="2">
  <advance width="843"/>
  <unicode hex="201D"/>
  <outline>
    <contour>
      <point x="78" y="785" type="line"/>
      <point x="35" y="454" type="line"/>
      <point x="270" y="454" type="line"/>
      <point x="403" y="785" type="line"/>
    </contour>
    <contour>
      <point x="458" y="785" type="line"/>
      <point x="415" y="454" type="line"/>
      <point x="650" y="453" type="line"/>
      <point x="783" y="785" type="line"/>
    </contour>
  </outline>
</glyph>
<glyph name="quotedblbase" format="2">
  <advance width="843"/>
  <unicode hex="201E"/>
  <outline>
    <contour>
      <point x="101" y="80" type="line"/>
      <point x="58" y="-251" type="line"/>
      <point x="293" y="-251" type="line"/>
      <point x="426" y="80" type="line"/>
    </contour>
    <contour>
      <point x="481" y="80" type="line"/>
      <point x="438" y="-251" type="line"/>
      <point x="673" y="-251" type="line"/>
      <point x="806" y="80" type="line"/>
    </contour>
  </outline>
</glyph>
<glyph name="dagger" format="2">
  <advance width="806"/>
  <unicode hex="2020"/>
  <outline>
    <contour>
      <point x="273" y="-215" type="line"/>
      <point x="533" y="-215" type="line"/>
      <point x="533" y="800" type="line"/>
      <point x="273" y="800" type="line"/>
    </contour>
    <contour>
      <point x="23" y="520" type="line"/>
      <point x="23" y="265" type="line"/>
      <point x="783" y="265" type="line"/>
      <point x="783" y="520" type="line"/>
    </contour>
  </outline>
</glyph>
<glyph name="daggerdbl" format="2">
  <advance width="806"/>
  <unicode hex="2021"/>
  <outline>
    <contour>
      <point x="273" y="-215" type="line"/>
      <point x="533" y="-215" type="line"/>
      <point x="533" y="800" type="line"/>
      <point x="273" y="800" type="line"/>
    </contour>
    <contour>
      <point x="23" y="620" type="line"/>
      <point x="23" y="365" type="line"/>
      <point x="783" y="365" type="line"/>
      <point x="783" y="620" type="line"/>
    </contour>
    <contour>
      <point x="23" y="220" type="line"/>
      <point x="23" y="-35" type="line"/>
      <point x="783" y="-35" type="line"/>
      <point x="783" y="220" type="line"/>
    </contour>
  </outline>
</glyph>
<glyph name="perthousand" format="2">
  <advance width="1706"/>
  <unicode hex="2030"/>
  <outline>
    <contour>
      <point x="1388" y="-27" type="curve" smooth="yes"/>
      <point x="1541" y="-27"/>
      <point x="1646" y="55"/>
      <point x="1646" y="181" type="curve" smooth="yes"/>
      <point x="1646" y="305"/>
      <point x="1541" y="385"/>
      <point x="1388" y="385" type="curve" smooth="yes"/>
      <point x="1235" y="385"/>
      <point x="1130" y="305"/>
      <point x="1130" y="181" type="curve" smooth="yes"/>
      <point x="1130" y="55"/>
      <point x="1235" y="-27"/>
    </contour>
    <contour>
      <point x="1388" y="107" type="curve" smooth="yes"/>
      <point x="1343" y="109"/>
      <point x="1314" y="134"/>
      <point x="1313" y="180" type="curve" smooth="yes"/>
      <point x="1312" y="225"/>
      <point x="1338" y="250"/>
      <point x="1385" y="252" type="curve" smooth="yes"/>
      <point x="1433" y="253"/>
      <point x="1463" y="230"/>
      <point x="1462" y="180" type="curve" smooth="yes"/>
      <point x="1461" y="130"/>
      <point x="1433" y="106"/>
    </contour>
    <component base="percent"/>
  </outline>
</glyph>
<glyph name="guilsinglleft" format="2">
  <advance width="603"/>
  <unicode hex="2039"/>
  <outline>
    <contour>
      <point x="58" y="314" type="line"/>
      <point x="324" y="28" type="line"/>
      <point x="653" y="28" type="line"/>
      <point x="389" y="314" type="line"/>
      <point x="652" y="600" type="line"/>
      <point x="324" y="600" type="line"/>
    </contour>
  </outline>
</glyph>
<glyph name="fraction" format="2">
  <advance width="803"/>
  <unicode hex="2044"/>
  <outline>
    <contour>
      <point x="538" y="750" type="line"/>
      <point x="-19" y="0" type="line"/>
      <point x="256" y="0" type="line"/>
      <point x="808" y="750" type="line"/>
    </contour>
  </outline>
</glyph>
<glyph name="zerosuperior" format="2">
  <advance width="636"/>
  <unicode hex="2070"/>
  <outline>
    <contour>
      <point x="318" y="383" type="curve" smooth="yes"/>
      <point x="522" y="383"/>
      <point x="613" y="476"/>
      <point x="613" y="625" type="curve" smooth="yes"/>
      <point x="613" y="773"/>
      <point x="522" y="866"/>
      <point x="318" y="866" type="curve" smooth="yes"/>
      <point x="114" y="866"/>
      <point x="23" y="773"/>
      <point x="23" y="625" type="curve" smooth="yes"/>
      <point x="23" y="476"/>
      <point x="114" y="383"/>
    </contour>
    <contour>
      <point x="318" y="530" type="curve" smooth="yes"/>
      <point x="275" y="530"/>
      <point x="243" y="560"/>
      <point x="243" y="625" type="curve" smooth="yes"/>
      <point x="243" y="689"/>
      <point x="275" y="720"/>
      <point x="318" y="720" type="curve" smooth="yes"/>
      <point x="361" y="720"/>
      <point x="393" y="689"/>
      <point x="393" y="625" type="curve" smooth="yes"/>
      <point x="393" y="560"/>
      <point x="361" y="530"/>
    </contour>
  </outline>
</glyph>
<glyph name="foursuperior" format="2">
  <advance width="663"/>
  <unicode hex="2074"/>
  <outline>
    <contour>
      <point x="23" y="467" type="line"/>
      <point x="356" y="467" type="line"/>
      <point x="356" y="397" type="line"/>
      <point x="558" y="397" type="line"/>
      <point x="558" y="475" type="line"/>
      <point x="640" y="475" type="line"/>
      <point x="640" y="620" type="line"/>
      <point x="558" y="620" type="line"/>
      <point x="558" y="855" type="line"/>
      <point x="228" y="855" type="line"/>
      <point x="23" y="606" type="line"/>
    </contour>
    <contour>
      <point x="235" y="602" type="line"/>
      <point x="356" y="751" type="line"/>
      <point x="356" y="602" type="line"/>
    </contour>
  </outline>
</glyph>
<glyph name="euro" format="2">
  <advance width="875"/>
  <unicode hex="20AC"/>
  <outline>
    <contour>
      <point x="827" y="537" type="curve"/>
      <point x="821" y="758" type="line"/>
      <point x="758" y="772"/>
      <point x="670" y="780"/>
      <point x="586" y="780" type="curve" smooth="yes"/>
      <point x="245" y="780"/>
      <point x="60" y="638"/>
      <point x="60" y="372" type="curve" smooth="yes"/>
      <point x="60" y="106"/>
      <point x="249" y="-26"/>
      <point x="586" y="-26" type="curve" smooth="yes"/>
      <point x="675" y="-26"/>
      <point x="765" y="-17"/>
      <point x="828" y="-1" type="curve"/>
      <point x="834" y="230" type="line"/>
      <point x="780" y="216"/>
      <point x="715" y="210"/>
      <point x="664" y="210" type="curve" smooth="yes"/>
      <point x="483" y="210"/>
      <point x="408" y="241"/>
      <point x="408" y="382" type="curve" smooth="yes"/>
      <point x="408" y="501"/>
      <point x="479" y="556"/>
      <point x="657" y="556" type="curve" smooth="yes"/>
      <point x="719" y="556"/>
      <point x="783" y="551"/>
    </contour>
    <contour>
      <point x="-35" y="513" type="line"/>
      <point x="-35" y="403" type="line"/>
      <point x="709" y="403" type="line"/>
      <point x="709" y="513" type="line"/>
    </contour>
    <contour>
      <point x="-35" y="373" type="line"/>
      <point x="-35" y="263" type="line"/>
      <point x="709" y="263" type="line"/>
      <point x="709" y="373" type="line"/>
    </contour>
  </outline>
</glyph>
<glyph name="trademark" format="2">
  <advance width="1002"/>
  <unicode hex="2122"/>
  <outline>
    <contour>
      <point x="35" y="689" type="line"/>
      <point x="165" y="689" type="line"/>
      <point x="165" y="452" type="line"/>
      <point x="309" y="452" type="line"/>
      <point x="309" y="689" type="line"/>
      <point x="438" y="689" type="line"/>
      <point x="438" y="800" type="line"/>
      <point x="35" y="800" type="line"/>
    </contour>
    <contour>
      <point x="462" y="452" type="line"/>
      <point x="601" y="452" type="line"/>
      <point x="601" y="735" type="line"/>
      <point x="572" y="724" type="line"/>
      <point x="670" y="452" type="line"/>
      <point x="756" y="452" type="line"/>
      <point x="854" y="724" type="line"/>
      <point x="826" y="726" type="line"/>
      <point x="826" y="452" type="line"/>
      <point x="965" y="452" type="line"/>
      <point x="965" y="800" type="line"/>
      <point x="782" y="800" type="line"/>
      <point x="702" y="586" type="line"/>
      <point x="724" y="586" type="line"/>
      <point x="644" y="800" type="line"/>
      <point x="462" y="800" type="line"/>
    </contour>
  </outline>
</glyph>
<glyph name="minus" format="2">
  <advance width="759"/>
  <unicode hex="2212"/>
  <outline>
    <contour>
      <point x="722" y="187" type="line"/>
      <point x="722" y="392" type="line"/>
      <point x="35" y="392" type="line"/>
      <point x="35" y="187" type="line"/>
    </contour>
  </outline>
</glyph>
<glyph name="approxequal" format="2">
  <advance width="586"/>
  <unicode hex="2248"/>
  <outline>
    <contour>
      <point x="733" y="362" type="curve"/>
      <point x="733" y="567" type="line"/>
      <point x="689" y="533"/>
      <point x="621" y="507"/>
      <point x="533" y="507" type="curve" smooth="yes"/>
      <point x="391" y="507"/>
      <point x="355" y="577"/>
      <point x="224" y="577" type="curve" smooth="yes"/>
      <point x="137" y="577"/>
      <point x="81" y="541"/>
      <point x="46" y="506" type="curve"/>
      <point x="46" y="301" type="line"/>
      <point x="81" y="336"/>
      <point x="137" y="372"/>
      <point x="223" y="372" type="curve" smooth="yes"/>
      <point x="354" y="372"/>
      <point x="390" y="302"/>
      <point x="532" y="302" type="curve" smooth="yes"/>
      <point x="620" y="302"/>
      <point x="689" y="328"/>
    </contour>
    <contour>
      <point x="733" y="62" type="curve"/>
      <point x="733" y="267" type="line"/>
      <point x="689" y="233"/>
      <point x="621" y="207"/>
      <point x="533" y="207" type="curve" smooth="yes"/>
      <point x="391" y="207"/>
      <point x="355" y="277"/>
      <point x="224" y="277" type="curve" smooth="yes"/>
      <point x="137" y="277"/>
      <point x="81" y="241"/>
      <point x="46" y="206" type="curve"/>
      <point x="46" y="1" type="line"/>
      <point x="81" y="36"/>
      <point x="137" y="72"/>
      <point x="223" y="72" type="curve" smooth="yes"/>
      <point x="354" y="72"/>
      <point x="390" y="2"/>
      <point x="532" y="2" type="curve" smooth="yes"/>
      <point x="620" y="2"/>
      <point x="689" y="28"/>
    </contour>
  </outline>
</glyph>
<glyph name="notequal" format="2">
  <advance width="753"/>
  <unicode hex="2260"/>
  <outline>
    <contour>
      <point x="96" y="-143" type="line"/>
      <point x="313" y="-143" type="line"/>
      <point x="641" y="721" type="line"/>
      <point x="424" y="721" type="line"/>
    </contour>
    <component base="minus" xOffset="2" yOffset="166"/>
    <component base="minus" xOffset="2" yOffset="-147"/>
  </outline>
</glyph>
<glyph name="greaterequal" format="2">
  <advance width="709"/>
  <unicode hex="2265"/>
  <outline>
    <contour>
      <point x="655" y="283" type="line"/>
      <point x="655" y="540" type="line"/>
      <point x="51" y="690" type="line"/>
      <point x="51" y="475" type="line"/>
      <point x="552" y="398" type="line"/>
      <point x="552" y="433" type="line"/>
      <point x="51" y="358" type="line"/>
      <point x="51" y="143" type="line"/>
    </contour>
    <contour>
      <point x="663" y="-114" type="line"/>
      <point x="663" y="81" type="line"/>
      <point x="46" y="81" type="line"/>
      <point x="46" y="-114" type="line"/>
    </contour>
  </outline>
</glyph>
<glyph name="I.ss01" format="2">
  <advance width="848"/>
  <anchor x="423" y="0" name="bottom"/>
  <anchor x="741" y="10" name="ogonek"/>
  <anchor x="423" y="750" name="top"/>
  <anchor x="28" y="750" name="topleft"/>
  <outline>
    <contour>
      <point x="273" y="0" type="line"/>
      <point x="574" y="0" type="line"/>
      <point x="574" y="750" type="line"/>
      <point x="273" y="750" type="line"/>
    </contour>
    <contour>
      <point x="58" y="750" type="line"/>
      <point x="58" y="550" type="line"/>
      <point x="788" y="550" type="line"/>
      <point x="788" y="750" type="line"/>
    </contour>
    <contour>
      <point x="58" y="200" type="line"/>
      <point x="58" y="0" type="line"/>
      <point x="788" y="0" type="line"/>
      <point x="788" y="200" type="line"/>
    </contour>
  </outline>
</glyph>
<glyph name="IJ.ss01" format="2">
  <advance width="928"/>
  <outline>
    <contour>
      <point x="58" y="307" type="line"/>
      <point x="368" y="307" type="line"/>
      <point x="368" y="750" type="line"/>
      <point x="58" y="750" type="line"/>
    </contour>
    <contour>
      <point x="59" y="20" type="line"/>
      <point x="170" y="-15"/>
      <point x="278" y="-25"/>
      <point x="367" y="-25" type="curve" smooth="yes"/>
      <point x="700" y="-25"/>
      <point x="868" y="115"/>
      <point x="868" y="306" type="curve" smooth="yes"/>
      <point x="868" y="750" type="line"/>
      <point x="578" y="750" type="line"/>
      <point x="578" y="419" type="line" smooth="yes"/>
      <point x="578" y="269"/>
      <point x="503" y="210"/>
      <point x="292" y="210" type="curve" smooth="yes"/>
      <point x="214" y="210"/>
      <point x="136" y="220"/>
      <point x="59" y="242" type="curve"/>
    </contour>
    <contour>
      <point x="430" y="750" type="line"/>
      <point x="430" y="545" type="line"/>
      <point x="698" y="545" type="line"/>
      <point x="698" y="750" type="line"/>
    </contour>
  </outline>
</glyph>
<glyph name="Q.ss01" format="2">
  <advance width="1056"/>
  <outline>
    <contour>
      <point x="23" y="355" type="curve" smooth="yes"/>
      <point x="23" y="51"/>
      <point x="302" y="-208"/>
      <point x="956" y="-365" type="curve"/>
      <point x="976" y="-67" type="line"/>
      <point x="597" y="-4" type="line"/>
      <point x="912" y="27"/>
      <point x="1033" y="169"/>
      <point x="1033" y="375" type="curve" smooth="yes"/>
      <point x="1033" y="620"/>
      <point x="860" y="775"/>
      <point x="528" y="775" type="curve" smooth="yes"/>
      <point x="196" y="775"/>
      <point x="23" y="620"/>
    </contour>
    <contour>
      <point x="363" y="375" type="curve" smooth="yes"/>
      <point x="363" y="491"/>
      <point x="416" y="550"/>
      <point x="530" y="547" type="curve" smooth="yes"/>
      <point x="640" y="544"/>
      <point x="693" y="485"/>
      <point x="693" y="375" type="curve" smooth="yes"/>
      <point x="693" y="263"/>
      <point x="640" y="204"/>
      <point x="528" y="204" type="curve" smooth="yes"/>
      <point x="416" y="204"/>
      <point x="363" y="263"/>
    </contour>
  </outline>
</glyph>
<glyph name="caroncomb.alt" format="2">
  <advance width="649"/>
  <anchor x="178" y="632" name="_topright"/>
  <outline>
    <contour>
      <point x="198" y="795" type="line"/>
      <point x="198" y="478" type="line"/>
      <point x="417" y="478" type="line"/>
      <point x="487" y="795" type="line"/>
    </contour>
  </outline>
</glyph>
<glyph name="g.ss01" format="2">
  <advance width="1010"/>
  <anchor x="507" y="-200" name="bottom"/>
  <anchor x="507" y="580" name="top"/>
  <outline>
    <contour>
      <point x="473" y="185" type="curve" smooth="yes"/>
      <point x="733" y="185"/>
      <point x="886" y="251"/>
      <point x="886" y="380" type="curve" smooth="yes"/>
      <point x="886" y="430"/>
      <point x="862" y="478"/>
      <point x="809" y="513" type="curve"/>
      <point x="819" y="516" type="line"/>
      <point x="774" y="565"/>
      <point x="674" y="602"/>
      <point x="491" y="602" type="curve" smooth="yes"/>
      <point x="195" y="602"/>
      <point x="64" y="516"/>
      <point x="64" y="389" type="curve" smooth="yes"/>
      <point x="64" y="262"/>
      <point x="194" y="185"/>
    </contour>
    <contour>
      <point x="480" y="334" type="curve" smooth="yes"/>
      <point x="397" y="334"/>
      <point x="354" y="355"/>
      <point x="354" y="395" type="curve" smooth="yes"/>
      <point x="354" y="434"/>
      <point x="397" y="455"/>
      <point x="480" y="455" type="curve" smooth="yes"/>
      <point x="560" y="455"/>
      <point x="602" y="434"/>
      <point x="602" y="395" type="curve" smooth="yes"/>
      <point x="602" y="355"/>
      <point x="560" y="334"/>
    </contour>
    <contour>
      <point x="259" y="269" type="line"/>
      <point x="143" y="259"/>
      <point x="28" y="211"/>
      <point x="28" y="113" type="curve" smooth="yes"/>
      <point x="28" y="-132"/>
      <point x="680" y="7"/>
      <point x="680" y="-71" type="curve" smooth="yes"/>
      <point x="680" y="-90"/>
      <point x="641" y="-105"/>
      <point x="473" y="-105" type="curve" smooth="yes"/>
      <point x="282" y="-105"/>
      <point x="123" y="-78"/>
      <point x="19" y="-43" type="curve"/>
      <point x="27" y="-218" type="line"/>
      <point x="128" y="-252"/>
      <point x="246" y="-275"/>
      <point x="440" y="-275" type="curve" smooth="yes"/>
      <point x="805" y="-275"/>
      <point x="938" y="-208"/>
      <point x="938" y="-76" type="curve" smooth="yes"/>
      <point x="938" y="247"/>
      <point x="226" y="59"/>
      <point x="226" y="179" type="curve" smooth="yes"/>
      <point x="226" y="209"/>
      <point x="271" y="227"/>
      <point x="355" y="242" type="curve"/>
    </contour>
    <contour>
      <point x="707" y="560" type="line"/>
      <point x="760" y="497" type="line"/>
      <point x="1020" y="488" type="line"/>
      <point x="1020" y="677" type="line"/>
    </contour>
  </outline>
</glyph>
<glyph name="l.ss01" format="2">
  <advance width="610"/>
  <anchor x="310" y="0" name="bottom"/>
  <anchor x="310" y="400" name="center"/>
  <anchor x="310" y="800" name="top"/>
  <anchor x="410" y="800" name="topright"/>
  <outline>
    <contour>
      <point x="76" y="220" type="line" smooth="yes"/>
      <point x="76" y="51"/>
      <point x="199" y="-24"/>
      <point x="383" y="-24" type="curve" smooth="yes"/>
      <point x="451" y="-24"/>
      <point x="519" y="-14"/>
      <point x="575" y="5" type="curve"/>
      <point x="602" y="205" type="line"/>
      <point x="573" y="199"/>
      <point x="541" y="195"/>
      <point x="506" y="195" type="curve" smooth="yes"/>
      <point x="401" y="195"/>
      <point x="356" y="233"/>
      <point x="356" y="335" type="curve" smooth="yes"/>
      <point x="356" y="800" type="line"/>
      <point x="76" y="800" type="line"/>
    </contour>
  </outline>
</glyph>
<glyph name="lslash.ss01" format="2">
  <advance width="648"/>
  <outline>
    <contour>
      <point x="6" y="411" type="line"/>
      <point x="6" y="221" type="line"/>
      <point x="531" y="488" type="line"/>
      <point x="531" y="677" type="line"/>
    </contour>
    <component base="l.ss01" xOffset="49"/>
  </outline>
</glyph>
